  0
SECTION
  2
HEADER
  9
$ACADVER
  1
AC1015
  9
$ACADMAINTVER
 70
     6
  9
$DWGCODEPAGE
  3
ANSI_1252
  9
$INSBASE
 10
0.0
 20
0.0
 30
0.0
  9
$EXTMIN
 10
0.0
 20
0.0
 30
0.0
  9
$EXTMAX
 10
10.0
 20
2.0
 30
0.0
  9
$LIMMIN
 10
0.0
 20
0.0
  9
$LIMMAX
 10
420.0
 20
297.0
  9
$ORTHOMODE
 70
     0
  9
$REGENMODE
 70
     1
  9
$FILLMODE
 70
     1
  9
$QTEXTMODE
 70
     0
  9
$MIRRTEXT
 70
     1
  9
$LTSCALE
 40
1.0
  9
$ATTMODE
 70
     1
  9
$TEXTSIZE
 40
0.3175
  9
$TRACEWID
 40
1.0
  9
$TEXTSTYLE
  7
Standard
  9
$CLAYER
  8
0
  9
$CELTYPE
  6
ByLayer
  9
$CECOLOR
 62
   256
  9
$CELTSCALE
 40
1.0
  9
$DISPSILH
 70
     0
  9
$DIMSCALE
 40
1.0
  9
$DIMASZ
 40
0.3302
  9
$DIMEXO
 40
0.0
  9
$DIMDLI
 40
3.75
  9
$DIMRND
 40
0.0
  9
$DIMDLE
 40
0.0
  9
$DIMEXE
 40
0.3175
  9
$DIMTP
 40
0.0
  9
$DIMTM
 40
0.0
  9
$DIMTXT
 40
0.3175
  9
$DIMCEN
 40
2.5
  9
$DIMTSZ
 40
0.0
  9
$DIMTOL
 70
     0
  9
$DIMLIM
 70
     0
  9
$DIMTIH
 70
     1
  9
$DIMTOH
 70
     1
  9
$DIMSE1
 70
     0
  9
$DIMSE2
 70
     0
  9
$DIMTAD
 70
     0
  9
$DIMZIN
 70
     1
  9
$DIMBLK
  1

  9
$DIMASO
 70
     1
  9
$DIMSHO
 70
     1
  9
$DIMPOST
  1

  9
$DIMAPOST
  1

  9
$DIMALT
 70
     0
  9
$DIMALTD
 70
     3
  9
$DIMALTF
 40
0.3937007874
  9
$DIMLFAC
 40
1.0
  9
$DIMTOFL
 70
     1
  9
$DIMTVP
 40
0.0
  9
$DIMTIX
 70
     0
  9
$DIMSOXD
 70
     0
  9
$DIMSAH
 70
     0
  9
$DIMBLK1
  1

  9
$DIMBLK2
  1

  9
$DIMSTYLE
  2
ISO-25
  9
$DIMCLRD
 70
     0
  9
$DIMCLRE
 70
     0
  9
$DIMCLRT
 70
     0
  9
$DIMTFAC
 40
1.0
  9
$DIMGAP
 40
0.1524
  9
$DIMJUST
 70
     0
  9
$DIMSD1
 70
     0
  9
$DIMSD2
 70
     0
  9
$DIMTOLJ
 70
     0
  9
$DIMTZIN
 70
     1
  9
$DIMALTZ
 70
     0
  9
$DIMALTTZ
 70
     0
  9
$DIMUPT
 70
     0
  9
$DIMDEC
 70
     2
  9
$DIMTDEC
 70
     2
  9
$DIMALTU
 70
     2
  9
$DIMALTTD
 70
     3
  9
$DIMTXSTY
  7
Standard
  9
$DIMAUNIT
 70
     0
  9
$DIMADEC
 70
     2
  9
$DIMALTRND
 40
0.0
  9
$DIMAZIN
 70
     0
  9
$DIMDSEP
 70
    44
  9
$DIMATFIT
 70
     3
  9
$DIMFRAC
 70
     0
  9
$DIMLDRBLK
  1

  9
$DIMLUNIT
 70
     2
  9
$DIMLWD
 70
    -2
  9
$DIMLWE
 70
    -2
  9
$DIMTMOVE
 70
     0
  9
$LUNITS
 70
     2
  9
$LUPREC
 70
     2
  9
$SKETCHINC
 40
1.0
  9
$FILLETRAD
 40
0.0
  9
$AUNITS
 70
     0
  9
$AUPREC
 70
     2
  9
$MENU
  1
.
  9
$ELEVATION
 40
0.0
  9
$PELEVATION
 40
0.0
  9
$THICKNESS
 40
0.0
  9
$LIMCHECK
 70
     0
  9
$CHAMFERA
 40
0.0
  9
$CHAMFERB
 40
0.0
  9
$CHAMFERC
 40
0.0
  9
$CHAMFERD
 40
0.0
  9
$SKPOLY
 70
     0
  9
$TDCREATE
 40
2461178.885453878
  9
$TDUCREATE
 40
2461178.593787211
  9
$TDUPDATE
 40
2461178.885481377
  9
$TDUUPDATE
 40
2461178.593814711
  9
$TDINDWG
 40
0.0000000116
  9
$TDUSRTIMER
 40
0.0000000116
  9
$USRTIMER
 70
     1
  9
$ANGBASE
 50
0.0
  9
$ANGDIR
 70
     0
  9
$PDMODE
 70
     0
  9
$PDSIZE
 40
-1.0
  9
$PLINEWID
 40
0.0
  9
$SPLFRAME
 70
     0
  9
$SPLINETYPE
 70
     6
  9
$SPLINESEGS
 70
     8
  9
$HANDSEED
  5
83
  9
$SURFTAB1
 70
     6
  9
$SURFTAB2
 70
     6
  9
$SURFTYPE
 70
     6
  9
$SURFU
 70
     6
  9
$SURFV
 70
     6
  9
$UCSBASE
  2

  9
$UCSNAME
  2

  9
$UCSORG
 10
0.0
 20
0.0
 30
0.0
  9
$UCSXDIR
 10
1.0
 20
0.0
 30
0.0
  9
$UCSYDIR
 10
0.0
 20
1.0
 30
0.0
  9
$UCSORTHOREF
  2

  9
$UCSORTHOVIEW
 70
     0
  9
$UCSORGTOP
 10
0.0
 20
0.0
 30
0.0
  9
$UCSORGBOTTOM
 10
0.0
 20
0.0
 30
0.0
  9
$UCSORGLEFT
 10
0.0
 20
0.0
 30
0.0
  9
$UCSORGRIGHT
 10
0.0
 20
0.0
 30
0.0
  9
$UCSORGFRONT
 10
0.0
 20
0.0
 30
0.0
  9
$UCSORGBACK
 10
0.0
 20
0.0
 30
0.0
  9
$PUCSBASE
  2

  9
$PUCSNAME
  2

  9
$PUCSORG
 10
0.0
 20
0.0
 30
0.0
  9
$PUCSXDIR
 10
1.0
 20
0.0
 30
0.0
  9
$PUCSYDIR
 10
0.0
 20
1.0
 30
0.0
  9
$PUCSORTHOREF
  2

  9
$PUCSORTHOVIEW
 70
     0
  9
$PUCSORGTOP
 10
0.0
 20
0.0
 30
0.0
  9
$PUCSORGBOTTOM
 10
0.0
 20
0.0
 30
0.0
  9
$PUCSORGLEFT
 10
0.0
 20
0.0
 30
0.0
  9
$PUCSORGRIGHT
 10
0.0
 20
0.0
 30
0.0
  9
$PUCSORGFRONT
 10
0.0
 20
0.0
 30
0.0
  9
$PUCSORGBACK
 10
0.0
 20
0.0
 30
0.0
  9
$USERI1
 70
     0
  9
$USERI2
 70
     0
  9
$USERI3
 70
     0
  9
$USERI4
 70
     0
  9
$USERI5
 70
     0
  9
$USERR1
 40
0.0
  9
$USERR2
 40
0.0
  9
$USERR3
 40
0.0
  9
$USERR4
 40
0.0
  9
$USERR5
 40
0.0
  9
$WORLDVIEW
 70
     1
  9
$SHADEDGE
 70
     3
  9
$SHADEDIF
 70
    70
  9
$TILEMODE
 70
     1
  9
$MAXACTVP
 70
    64
  9
$PINSBASE
 10
0.0
 20
0.0
 30
0.0
  9
$PLIMCHECK
 70
     0
  9
$PEXTMIN
 10
1.0000000000E+20
 20
1.0000000000E+20
 30
1.0000000000E+20
  9
$PEXTMAX
 10
-1.0000000000E+20
 20
-1.0000000000E+20
 30
-1.0000000000E+20
  9
$PLIMMIN
 10
0.0
 20
0.0
  9
$PLIMMAX
 10
420.0
 20
297.0
  9
$UNITMODE
 70
     0
  9
$VISRETAIN
 70
     1
  9
$PLINEGEN
 70
     0
  9
$PSLTSCALE
 70
     1
  9
$TREEDEPTH
 70
  3020
  9
$CMLSTYLE
  2
Standard
  9
$CMLJUST
 70
     0
  9
$CMLSCALE
 40
20.0
  9
$PROXYGRAPHICS
 70
     1
  9
$MEASUREMENT
 70
     1
  9
$CELWEIGHT
370
    -1
  9
$ENDCAPS
280
     0
  9
$JOINSTYLE
280
     0
  9
$LWDISPLAY
290
     1
  9
$INSUNITS
 70
     5
  9
$HYPERLINKBASE
  1

  9
$STYLESHEET
  1

  9
$XEDIT
290
     1
  9
$CEPSNTYPE
380
     0
  9
$PSTYLEMODE
290
     1
  9
$FINGERPRINTGUID
  2
{b3b91cee-e4be-4488-bfee-144db26b52d3}
  9
$VERSIONGUID
  2
{FAEB1C32-E019-11D5-929B-00C0DF256EC4}
  9
$EXTNAMES
290
     1
  9
$PSVPSCALE
 40
0.0
  9
$OLESTARTUP
290
     0
  0
ENDSEC
  0
SECTION
  2
CLASSES
  0
CLASS
  1
ACDBDICTIONARYWDFLT
  2
AcDbDictionaryWithDefault
  3
ObjectDBX Classes
 90
        0
280
     0
281
     0
  0
CLASS
  1
VISUALSTYLE
  2
AcDbVisualStyle
  3
ObjectDBX Classes
 90
     4095
280
     0
281
     0
  0
CLASS
  1
MATERIAL
  2
AcDbMaterial
  3
ObjectDBX Classes
 90
     1153
280
     0
281
     0
  0
CLASS
  1
SCALE
  2
AcDbScale
  3
ObjectDBX Classes
 90
     1153
280
     0
281
     0
  0
CLASS
  1
TABLESTYLE
  2
AcDbTableStyle
  3
ObjectDBX Classes
 90
     4095
280
     0
281
     0
  0
CLASS
  1
MLEADERSTYLE
  2
AcDbMLeaderStyle
  3
ACDB_MLEADERSTYLE_CLASS
 90
     4095
280
     0
281
     0
  0
CLASS
  1
SUN
  2
AcDbSun
  3
SCENEOE
 90
     1153
280
     0
281
     0
  0
CLASS
  1
ACDBPLACEHOLDER
  2
AcDbPlaceHolder
  3
ObjectDBX Classes
 90
        0
280
     0
281
     0
  0
CLASS
  1
LAYOUT
  2
AcDbLayout
  3
ObjectDBX Classes
 90
        0
280
     0
281
     0
  0
ENDSEC
  0
SECTION
  2
TABLES
  0
TABLE
  2
VPORT
  5
8
330
0
100
AcDbSymbolTable
 70
     1
  0
VPORT
  5
29
330
8
100
AcDbSymbolTableRecord
100
AcDbViewportTableRecord
  2
*Active
 70
     0
 10
0.0
 20
0.0
 11
1.0
 21
1.0
 12
5.0
 22
1.0
 13
0.0
 23
0.0
 14
10.0
 24
10.0
 15
10.0
 25
10.0
 16
0.0
 26
0.0
 36
1.0
 17
0.0
 27
0.0
 37
0.0
 40
2.04
 41
5.0
 42
50.0
 43
0.0
 44
0.0
 50
0.0
 51
0.0
 71
     0
 72
   100
 73
     1
 74
     3
 75
     0
 76
     0
 77
     0
 78
     0
281
     0
 65
     1
110
0.0
120
0.0
130
0.0
111
1.0
121
0.0
131
0.0
112
0.0
122
1.0
132
0.0
 79
     0
146
0.0
  0
ENDTAB
  0
TABLE
  2
LTYPE
  5
5
330
0
100
AcDbSymbolTable
 70
     6
  0
LTYPE
  5
14
330
5
100
AcDbSymbolTableRecord
100
AcDbLinetypeTableRecord
  2
ByBlock
 70
     0
  3

 72
    65
 73
     0
 40
0.0
  0
LTYPE
  5
15
330
5
100
AcDbSymbolTableRecord
100
AcDbLinetypeTableRecord
  2
ByLayer
 70
     0
  3

 72
    65
 73
     0
 40
0.0
  0
LTYPE
  5
16
330
5
100
AcDbSymbolTableRecord
100
AcDbLinetypeTableRecord
  2
Continuous
 70
     0
  3
Solid line
 72
    65
 73
     0
 40
0.0
  0
LTYPE
  5
5E
330
5
100
AcDbSymbolTableRecord
100
AcDbLinetypeTableRecord
  2
HIDDEN
 70
     0
  3
Hidden __ __ __ __ __ __ __ __ __ __ __ __ __ __
 72
    65
 73
     2
 40
0.1905
 49
0.127
 74
     0
 49
-0.0635
 74
     0
  0
LTYPE
  5
5F
330
5
100
AcDbSymbolTableRecord
100
AcDbLinetypeTableRecord
  2
PHANTOM
 70
     0
  3
Phantom ______  __  __  ______  __  __  ______
 72
    65
 73
     6
 40
1.27
 49
0.635
 74
     0
 49
-0.127
 74
     0
 49
0.127
 74
     0
 49
-0.127
 74
     0
 49
0.127
 74
     0
 49
-0.127
 74
     0
  0
LTYPE
  5
60
330
5
100
AcDbSymbolTableRecord
100
AcDbLinetypeTableRecord
  2
CENTER
 70
     0
  3
Center ____ _ ____ _ ____ _ ____ _ ____ _ ____
 72
    65
 73
     4
 40
1.016
 49
0.635
 74
     0
 49
-0.127
 74
     0
 49
0.127
 74
     0
 49
-0.127
 74
     0
  0
LTYPE
  5
61
330
5
100
AcDbSymbolTableRecord
100
AcDbLinetypeTableRecord
  2
CENTERX2
 70
     0
  3
Center (2x) ________  __  ________  __  _____
 72
    65
 73
     4
 40
2.032
 49
1.27
 74
     0
 49
-0.254
 74
     0
 49
0.254
 74
     0
 49
-0.254
 74
     0
  0
LTYPE
  5
62
330
5
100
AcDbSymbolTableRecord
100
AcDbLinetypeTableRecord
  2
DOT2
 70
     0
  3
Dot (.5x) ........................................
 72
    65
 73
     2
 40
0.0635
 49
0.0
 74
     0
 49
-0.0635
 74
     0
  0
ENDTAB
  0
TABLE
  2
LAYER
  5
2
330
0
100
AcDbSymbolTable
 70
     1
  0
LAYER
  5
10
330
2
100
AcDbSymbolTableRecord
100
AcDbLayerTableRecord
  2
0
 70
     0
 62
     7
  6
Continuous
370
    -3
390
F
  0
ENDTAB
  0
TABLE
  2
STYLE
  5
3
330
0
100
AcDbSymbolTable
 70
     1
  0
STYLE
  5
11
330
3
100
AcDbSymbolTableRecord
100
AcDbTextStyleTableRecord
  2
Standard
 70
     0
 40
0.0
 41
1.0
 50
0.0
 71
     0
 42
0.3175
  3
txt
  4

  0
ENDTAB
  0
TABLE
  2
VIEW
  5
6
330
0
100
AcDbSymbolTable
 70
     0
  0
ENDTAB
  0
TABLE
  2
UCS
  5
7
330
0
100
AcDbSymbolTable
 70
     0
  0
ENDTAB
  0
TABLE
  2
APPID
  5
9
330
0
100
AcDbSymbolTable
 70
     1
  0
APPID
  5
12
330
9
100
AcDbSymbolTableRecord
100
AcDbRegAppTableRecord
  2
ACAD
 70
     0
  0
ENDTAB
  0
TABLE
  2
DIMSTYLE
  5
A
330
0
100
AcDbSymbolTable
 70
     1
100
AcDbDimStyleTable
  0
DIMSTYLE
105
27
330
A
100
AcDbSymbolTableRecord
100
AcDbDimStyleTableRecord
  2
ISO-25
 70
     0
 41
2.5
 42
0.625
 43
3.75
 44
1.25
 73
     0
 74
     0
 77
     1
 78
     8
140
2.5
141
2.5
143
0.0393700787
147
0.625
171
     3
172
     1
178
     0
271
     2
272
     2
274
     3
278
    44
283
     0
284
     8
340
11
  0
ENDTAB
  0
TABLE
  2
BLOCK_RECORD
  5
1
330
0
100
AcDbSymbolTable
 70
     1
  0
BLOCK_RECORD
  5
1F
330
1
100
AcDbSymbolTableRecord
100
AcDbBlockTableRecord
  2
*Model_Space
340
22
  0
BLOCK_RECORD
  5
1B
330
1
100
AcDbSymbolTableRecord
100
AcDbBlockTableRecord
  2
*Paper_Space
340
1E
  0
BLOCK_RECORD
  5
23
330
1
100
AcDbSymbolTableRecord
100
AcDbBlockTableRecord
  2
*Paper_Space0
340
26
  0
ENDTAB
  0
ENDSEC
  0
SECTION
  2
BLOCKS
  0
BLOCK
  5
20
330
1F
100
AcDbEntity
  8
0
100
AcDbBlockBegin
  2
*Model_Space
 70
     0
 10
0.0
 20
0.0
 30
0.0
  3
*Model_Space
  1

  0
ENDBLK
  5
21
330
1F
100
AcDbEntity
  8
0
100
AcDbBlockEnd
  0
BLOCK
  5
1C
330
1B
100
AcDbEntity
 67
     1
  8
0
100
AcDbBlockBegin
  2
*Paper_Space
 70
     0
 10
0.0
 20
0.0
 30
0.0
  3
*Paper_Space
  1

  0
ENDBLK
  5
1D
330
1B
100
AcDbEntity
 67
     1
  8
0
100
AcDbBlockEnd
  0
BLOCK
  5
24
330
23
100
AcDbEntity
  8
0
100
AcDbBlockBegin
  2
*Paper_Space0
 70
     0
 10
0.0
 20
0.0
 30
0.0
  3
*Paper_Space0
  1

  0
ENDBLK
  5
25
330
23
100
AcDbEntity
  8
0
100
AcDbBlockEnd
  0
ENDSEC
  0
SECTION
  2
ENTITIES
  0
CIRCLE
  5
63
330
1F
100
AcDbEntity
  8
0
  6
Continuous
 62
     7
100
AcDbCircle
 10
0.2842179474
 20
1.7237203457
 30
0.0
 40
0.25
  0
LINE
  5
64
330
1F
100
AcDbEntity
  8
0
  6
Continuous
 62
     7
100
AcDbLine
 10
0.0
 20
0.0
 30
0.0
 11
10.0
 21
0.0
 31
0.0
  0
LINE
  5
65
330
1F
100
AcDbEntity
  8
0
  6
Continuous
 62
     7
100
AcDbLine
 10
0.0
 20
0.0
 30
0.0
 11
0.0
 21
2.0
 31
0.0
  0
LINE
  5
66
330
1F
100
AcDbEntity
  8
0
  6
Continuous
 62
     7
100
AcDbLine
 10
0.0
 20
2.0
 30
0.0
 11
10.0
 21
2.0
 31
0.0
  0
LINE
  5
67
330
1F
100
AcDbEntity
  8
0
  6
Continuous
 62
     7
100
AcDbLine
 10
10.0
 20
0.0
 30
0.0
 11
10.0
 21
2.0
 31
0.0
  0
LWPOLYLINE
  5
68
330
1F
100
AcDbEntity
  8
0
  6
Continuous
 62
     7
100
AcDbPolyline
 90
      102
 70
   128
 43
0.0
 10
0.9493768215
 20
0.7383751111
 10
0.7413607288
 20
0.7383751111
 10
0.7413607288
 20
0.7383751111
 10
0.7413607288
 20
0.7547349493
 10
0.7413607288
 20
0.7547349493
 10
0.7486610867
 20
0.7554385983
 10
0.7553457517
 20
0.7562302033
 10
0.761414724
 20
0.7571097645
 10
0.7667800473
 20
0.758165238
 10
0.7714417216
 20
0.7592207114
 10
0.7754877031
 20
0.7604520971
 10
0.7788300356
 20
0.7616834827
 10
0.7815566753
 20
0.7630907806
 10
0.7815566753
 20
0.7630907806
 10
0.7885931649
 20
0.7683681478
 10
0.7936066637
 20
0.7745250762
 10
0.7966851278
 20
0.7815615657
 10
0.7976526451
 20
0.7894776165
 10
0.7976526451
 20
0.7894776165
 10
0.7971249084
 20
0.7952827203
 10
0.7957176105
 20
0.8021432976
 10
0.7932548392
 20
0.8101473045
 10
0.7898245505
 20
0.8191188287
 10
0.7898245505
 20
0.8191188287
 10
0.7848990078
 20
0.8312567731
 10
0.7848990078
 20
0.8312567731
 10
0.7583362598
 20
0.895992477
 10
0.7583362598
 20
0.895992477
 10
0.6432016996
 20
0.895992477
 10
0.6432016996
 20
0.895992477
 10
0.629480545
 20
0.8596665997
 10
0.629480545
 20
0.8596665997
 10
0.6222681432
 20
0.8416355952
 10
0.6222681432
 20
0.8416355952
 10
0.6169028199
 20
0.8275626161
 10
0.6130327506
 20
0.8148969349
 10
0.6107458915
 20
0.8037265078
 10
0.6099542865
 20
0.7938754224
 10
0.6099542865
 20
0.7938754224
 10
0.6102181548
 20
0.7885980553
 10
0.6110097599
 20
0.7836725126
 10
0.6124170578
 20
0.7790108382
 10
0.6142641363
 20
0.7747889445
 10
0.6185739862
 20
0.7678404111
 10
0.6229717921
 20
0.7634426051
 10
0.6229717921
 20
0.7634426051
 10
0.6290407644
 20
0.7601882287
 10
0.6366929467
 20
0.7575495451
 10
0.6460162954
 20
0.7556145105
 10
0.6569228542
 20
0.7543831248
 10
0.6569228542
 20
0.7543831248
 10
0.6569228542
 20
0.7383751111
 10
0.6569228542
 20
0.7383751111
 10
0.50493468
 20
0.7383751111
 10
0.50493468
 20
0.7383751111
 10
0.50493468
 20
0.7549108615
 10
0.50493468
 20
0.7549108615
 10
0.5142580286
 20
0.7557904227
 10
0.5224379477
 20
0.7572856768
 10
0.5295623934
 20
0.7593966236
 10
0.5355434095
 20
0.7621232633
 10
0.5409966889
 20
0.7657294642
 10
0.5463620122
 20
0.7703031824
 10
0.5517273355
 20
0.775844418
 10
0.5570926587
 20
0.7823531708
 10
0.5570926587
 20
0.7823531708
 10
0.5617543331
 20
0.7886860114
 10
0.5663280513
 20
0.7958984132
 10
0.5709017695
 20
0.8038144639
 10
0.5752995754
 20
0.8125221197
 10
0.5800492059
 20
0.8229009418
 10
0.5855024853
 20
0.8357425352
 10
0.5915714575
 20
0.8509589439
 10
0.5983440787
 20
0.86872608
 10
0.5983440787
 20
0.86872608
 10
0.7037155097
 20
1.1493061007
 10
0.7037155097
 20
1.1493061007
 10
0.7333567219
 20
1.1493061007
 10
0.7333567219
 20
1.1493061007
 10
0.8643233836
 20
0.8371498331
 10
0.8643233836
 20
0.8371498331
 10
0.8680175406
 20
0.8282662651
 10
0.8714478293
 20
0.8199983899
 10
0.8746142496
 20
0.8125221197
 10
0.8776047576
 20
0.8058374546
 10
0.8804193535
 20
0.7997684824
 10
0.8828821248
 20
0.7944911153
 10
0.8851689839
 20
0.789917397
 10
0.8872799308
 20
0.7860473278
 10
0.89115
 20
0.7796265311
 10
0.894844157
 20
0.7742612078
 10
0.8984503579
 20
0.7700393141
 10
0.9017926905
 20
0.7669608499
 10
0.9017926905
 20
0.7669608499
 10
0.9090050922
 20
0.7622991756
 10
0.916217494
 20
0.7592207114
 10
0.9210550806
 20
0.7580772818
 10
0.9281795263
 20
0.7567579401
 10
0.937590831
 20
0.7554385983
 10
0.949376951
 20
0.7540313004
 10
0.949376951
 20
0.7540313004
 10
0.949376951
 20
0.7383751111
  0
LWPOLYLINE
  5
69
330
1F
100
AcDbEntity
  8
0
  6
Continuous
 62
     7
100
AcDbPolyline
 90
        6
 70
   128
 43
0.0
 10
0.7519152015
 20
0.9185092435
 10
0.6991417915
 20
1.0615258936
 10
0.6991417915
 20
1.0615258936
 10
0.650150233
 20
0.9185092435
 10
0.650150233
 20
0.9185092435
 10
0.7519154631
 20
0.9185092435
  0
LWPOLYLINE
  5
6A
330
1F
100
AcDbEntity
  8
0
  6
Continuous
 62
     7
100
AcDbPolyline
 90
      186
 70
   128
 43
0.0
 10
1.1516757309
 20
1.1493061007
 10
1.1516760255
 20
1.1329462625
 10
1.1516760255
 20
1.1329462625
 10
1.1405055984
 20
1.1322426135
 10
1.1314461181
 20
1.1312750962
 10
1.1243216724
 20
1.1301316667
 10
1.1192202175
 20
1.1287243688
 10
1.115174236
 20
1.1268772903
 10
1.1111282545
 20
1.1242386067
 10
1.107082273
 20
1.1208962741
 10
1.1030362915
 20
1.1168502927
 10
1.1030362915
 20
1.1168502927
 10
1.0998698712
 20
1.1128922673
 10
1.0972311876
 20
1.1080546807
 10
1.0950322847
 20
1.1022495768
 10
1.0932731623
 20
1.0955649118
 10
1.0925695133
 20
1.0916948425
 10
1.0920417766
 20
1.0870331682
 10
1.0915140399
 20
1.081755801
 10
1.0910742593
 20
1.0756868288
 10
1.0908103909
 20
1.0690021637
 10
1.0905465226
 20
1.0616138497
 10
1.0904585665
 20
1.0534339306
 10
1.0903706103
 20
1.0446383187
 10
1.0903706103
 20
1.0446383187
 10
1.0903706103
 20
0.8762023501
 10
1.0903706103
 20
0.8762023501
 10
1.0904585665
 20
0.8662633086
 10
1.0905465226
 20
0.8570279161
 10
1.0908103909
 20
0.8484961725
 10
1.0911622154
 20
0.840756034
 10
1.0915140399
 20
0.8336315884
 10
1.0920417766
 20
0.8272987478
 10
1.0926574694
 20
0.8216695561
 10
1.0933611184
 20
0.8167440134
 10
1.0952081969
 20
0.8079484015
 10
1.0975830121
 20
0.7999443947
 10
1.1005735202
 20
0.7925560806
 10
1.1041797211
 20
0.7858714156
 10
1.1041797211
 20
0.7858714156
 10
1.1115680351
 20
0.7748769006
 10
1.1193081736
 20
0.7657294642
 10
1.1274880927
 20
0.7584291063
 10
1.1360198363
 20
0.7529758269
 10
1.145431141
 20
0.7490178016
 10
1.1559858754
 20
0.7462911619
 10
1.1678599515
 20
0.7445320395
 10
1.1809654133
 20
0.7440043027
 10
1.1809654133
 20
0.7440043027
 10
1.1955661291
 20
0.7445320395
 10
1.2097270643
 20
0.7462911619
 10
1.223536175
 20
0.7490178016
 10
1.2369055052
 20
0.7529758269
 10
1.2495711863
 20
0.7579013696
 10
1.2611813941
 20
0.7637064735
 10
1.2716481723
 20
0.7703911386
 10
1.280971521
 20
0.7779553648
 10
1.280971521
 20
0.7779553648
 10
1.2858970636
 20
0.7828809075
 10
1.2901189574
 20
0.7879823624
 10
1.2936372021
 20
0.7933476857
 10
1.296451798
 20
0.7988009651
 10
1.2987386571
 20
0.8047819812
 10
1.3006736917
 20
0.8116425585
 10
1.3020809896
 20
0.8192947409
 10
1.303136463
 20
0.8278264845
 10
1.303136463
 20
0.8278264845
 10
1.3034003314
 20
0.8315206415
 10
1.3036641997
 20
0.8361823158
 10
1.303840112
 20
0.8418115075
 10
1.3040160242
 20
0.8484961725
 10
1.3041039803
 20
0.8561483549
 10
1.3041919365
 20
0.8647680546
 10
1.3042798926
 20
0.8744432277
 10
1.3042798926
 20
0.8850859182
 10
1.3042798926
 20
0.8850859182
 10
1.3042798926
 20
1.0514109399
 10
1.3042798926
 20
1.0514109399
 10
1.3041039803
 20
1.0653080067
 10
1.3034882875
 20
1.0770941267
 10
1.3025207702
 20
1.0869452121
 10
1.3011134723
 20
1.0947733067
 10
1.2992663938
 20
1.1012820595
 10
1.2968036224
 20
1.1071751195
 10
1.2937251583
 20
1.1123645306
 10
1.2900310012
 20
1.1168502927
 10
1.2900310012
 20
1.1168502927
 10
1.2821149505
 20
1.1236229138
 10
1.2733193386
 20
1.1281086759
 10
1.2679540153
 20
1.1296918861
 10
1.261093438
 20
1.1310112279
 10
1.2528255628
 20
1.1319787452
 10
1.2429744774
 20
1.1326823941
 10
1.2429744774
 20
1.1326823941
 10
1.2429744774
 20
1.1493061007
 10
1.2429744774
 20
1.1493061007
 10
1.3936433098
 20
1.1493061007
 10
1.3936433098
 20
1.1493061007
 10
1.3936433098
 20
1.1329462625
 10
1.3936433098
 20
1.1329462625
 10
1.3825608388
 20
1.1322426135
 10
1.3734134024
 20
1.1312750962
 10
1.3663769128
 20
1.1301316667
 10
1.361363414
 20
1.1287243688
 10
1.3574053887
 20
1.1268772903
 10
1.3533594072
 20
1.1243265628
 10
1.3492254696
 20
1.1210721864
 10
1.3450035758
 20
1.1170262049
 10
1.3450035758
 20
1.1170262049
 10
1.3421010239
 20
1.1133320479
 10
1.3395502964
 20
1.1087583297
 10
1.3374393496
 20
1.103129138
 10
1.3355922711
 20
1.0966203852
 10
1.3341849732
 20
1.0886163783
 10
1.3332174558
 20
1.0785893807
 10
1.332601763
 20
1.0664514363
 10
1.3324258508
 20
1.0522905011
 10
1.3324258508
 20
1.0522905011
 10
1.3324258508
 20
0.8664392209
 10
1.3324258508
 20
0.8664392209
 10
1.3323378947
 20
0.8564122233
 10
1.3319860702
 20
0.8470888746
 10
1.3315462896
 20
0.8384691749
 10
1.3308426406
 20
0.8304651681
 10
1.3298751233
 20
0.823076854
 10
1.3288196499
 20
0.816392189
 10
1.3275003081
 20
0.8103232167
 10
1.3260050541
 20
0.8049578935
 10
1.3218711165
 20
0.7949308959
 10
1.3157141881
 20
0.7850798105
 10
1.3076222251
 20
0.7752287251
 10
1.2975952275
 20
0.765553552
 10
1.2975952275
 20
0.765553552
 10
1.2860729759
 20
0.7565820278
 10
1.2732313825
 20
0.7487539332
 10
1.2590704472
 20
0.7421572242
 10
1.2437660825
 20
0.7367039448
 10
1.2271423759
 20
0.7324820511
 10
1.2091993276
 20
0.7294915431
 10
1.1900248936
 20
0.7277324207
 10
1.1696190739
 20
0.7271167278
 10
1.1696190739
 20
0.7271167278
 10
1.1493012103
 20
0.7276444646
 10
1.1303026885
 20
0.7294035869
 10
1.1127114646
 20
0.7322181828
 10
1.0965275387
 20
0.7362641642
 10
1.0816629545
 20
0.7413656192
 10
1.0681177121
 20
0.7476105036
 10
1.0559797677
 20
0.7550867738
 10
1.0452491211
 20
0.7636185174
 10
1.0452491211
 20
0.7636185174
 10
1.0389162805
 20
0.7697754457
 10
1.0331991328
 20
0.7764601108
 10
1.028185634
 20
0.7834966003
 10
1.0238757841
 20
0.7910608266
 10
1.0202695832
 20
0.7990648335
 10
1.0172790752
 20
0.807596577
 10
1.0149922161
 20
0.8164801451
 10
1.0133210498
 20
0.8258914499
 10
1.0133210498
 20
0.8258914499
 10
1.0125294447
 20
0.8338075006
 10
1.012001708
 20
0.844450191
 10
1.0116498835
 20
0.8576436089
 10
1.0115619274
 20
0.8735636665
 10
1.0115619274
 20
0.8735636665
 10
1.0115619274
 20
1.0522905011
 10
1.0115619274
 20
1.0522905011
 10
1.0113860152
 20
1.0660996118
 10
1.0108582784
 20
1.0777977757
 10
1.0098907611
 20
1.0875609049
 10
1.0085714193
 20
1.0952130873
 10
1.0067243408
 20
1.101633884
 10
1.0042615695
 20
1.1074389879
 10
1.0010951492
 20
1.1125404428
 10
0.9973130361
 20
1.1170262049
 10
0.9973130361
 20
1.1170262049
 10
0.9897488098
 20
1.1236229138
 10
0.9808652417
 20
1.1281086759
 10
0.9754119623
 20
1.1296918861
 10
0.9684634289
 20
1.1310112279
 10
0.9601075976
 20
1.1319787452
 10
0.9503444683
 20
1.1326823941
 10
0.9503444683
 20
1.1326823941
 10
0.9503444683
 20
1.1493061007
 10
0.9503444683
 20
1.1493061007
 10
1.1516760255
 20
1.1493061007
  0
LWPOLYLINE
  5
6B
330
1F
100
AcDbEntity
  8
0
  6
Continuous
 62
     7
100
AcDbPolyline
 90
      101
 70
   128
 43
0.0
 10
1.5744805336
 20
1.1324185258
 10
1.56770847
 20
1.1323305697
 10
1.5598803754
 20
1.1321546574
 10
1.5509968073
 20
1.1318028329
 10
1.541145722
 20
1.1312750962
 10
1.541145722
 20
1.1312750962
 10
1.5310307683
 20
1.1306594034
 10
1.5216194635
 20
1.1297798422
 10
1.5129118077
 20
1.1288123249
 10
1.5049078008
 20
1.1276688953
 10
1.4976074429
 20
1.1262615974
 10
1.4910986901
 20
1.1246783873
 10
1.4852056301
 20
1.123007221
 10
1.480016219
 20
1.1210721864
 10
1.4707808265
 20
1.1161466437
 10
1.4620731707
 20
1.1094619786
 10
1.4540691638
 20
1.1009302351
 10
1.4465928937
 20
1.090551413
 10
1.4465928937
 20
1.090551413
 10
1.4436903417
 20
1.0856258703
 10
1.440963702
 20
1.0799966786
 10
1.4383250185
 20
1.0736638381
 10
1.435774291
 20
1.0666273485
 10
1.4333115197
 20
1.0589751661
 10
1.4310246606
 20
1.0505313787
 10
1.4288257576
 20
1.0414718984
 10
1.4267148107
 20
1.0317087691
 10
1.4267148107
 20
1.0317087691
 10
1.4056053421
 20
1.0328521987
 10
1.4056053421
 20
1.0328521987
 10
1.4114984021
 20
1.1493061007
 10
1.4114984021
 20
1.1493061007
 10
1.8160965511
 20
1.1493061007
 10
1.8160965511
 20
1.1493061007
 10
1.8221655233
 20
1.0334678915
 10
1.8221655233
 20
1.0334678915
 10
1.8007042302
 20
1.0317087691
 10
1.8007042302
 20
1.0317087691
 10
1.7985053272
 20
1.0424394157
 10
1.7960425558
 20
1.0523784572
 10
1.7933159161
 20
1.0615258936
 10
1.7905013203
 20
1.069969681
 10
1.7873349
 20
1.0776218634
 10
1.7839925675
 20
1.0844824407
 10
1.7803863666
 20
1.0906393691
 10
1.7766042535
 20
1.0960046924
 10
1.7678965977
 20
1.1052400849
 10
1.7574298195
 20
1.1131561356
 10
1.7451159627
 20
1.1195769324
 10
1.7310429836
 20
1.1245904312
 10
1.7310429836
 20
1.1245904312
 10
1.7240944502
 20
1.1264375097
 10
1.7163543117
 20
1.1280207198
 10
1.7078225681
 20
1.1293400616
 10
1.6984992195
 20
1.1304834912
 10
1.6883842658
 20
1.1312750962
 10
1.677477707
 20
1.1318907891
 10
1.6657795431
 20
1.1323305697
 10
1.6532897741
 20
1.1324185258
 10
1.6532897741
 20
1.1324185258
 10
1.6532897741
 20
0.8358304913
 10
1.6532897741
 20
0.8358304913
 10
1.6534656864
 20
0.8216695561
 10
1.6540813792
 20
0.8094436555
 10
1.6551368527
 20
0.7993287018
 10
1.6565441506
 20
0.7912367388
 10
1.6583912291
 20
0.7846400299
 10
1.6605021759
 20
0.7790987944
 10
1.6630529034
 20
0.7743491639
 10
1.6659554553
 20
0.7706550069
 10
1.6659554553
 20
0.7706550069
 10
1.6742233305
 20
0.7634426051
 10
1.6824032496
 20
0.758956843
 10
1.6875926607
 20
0.7575495451
 10
1.6947171064
 20
0.7563181595
 10
1.7039524989
 20
0.7553506421
 10
1.7152108822
 20
0.7546469932
 10
1.7152108822
 20
0.7546469932
 10
1.7152108822
 20
0.7383751111
 10
1.7152108822
 20
0.7383751111
 10
1.5125599832
 20
0.7383751111
 10
1.5125599832
 20
0.7383751111
 10
1.5125599832
 20
0.7549108615
 10
1.5125599832
 20
0.7549108615
 10
1.5224990247
 20
0.7556145105
 10
1.5310307683
 20
0.7565820278
 10
1.5378913456
 20
0.7578134135
 10
1.543344625
 20
0.7593966236
 10
1.552228193
 20
0.7639703418
 10
1.5601442438
 20
0.7706550069
 10
1.5601442438
 20
0.7706550069
 10
1.5638384008
 20
0.7752287251
 10
1.5669168649
 20
0.78033018
 10
1.5694675924
 20
0.7861352839
 10
1.5713146709
 20
0.7925560806
 10
1.5727219688
 20
0.8003841752
 10
1.5736894861
 20
0.8101473045
 10
1.574305179
 20
0.8220213806
 10
1.5744810912
 20
0.8358304913
 10
1.5744810912
 20
0.8358304913
 10
1.5744810912
 20
1.1324185258
  0
LWPOLYLINE
  5
6C
330
1F
100
AcDbEntity
  8
0
  6
Continuous
 62
     7
100
AcDbPolyline
 90
       88
 70
   128
 43
0.0
 10
1.8503114581
 20
0.9410260101
 10
1.850663306
 20
0.9536037352
 10
1.8516308233
 20
0.966005548
 10
1.8533019895
 20
0.9781434924
 10
1.8556768048
 20
0.9901055247
 10
1.8586673128
 20
1.0017157324
 10
1.8623614698
 20
1.0131500279
 10
1.8667592758
 20
1.0243204551
 10
1.8717727746
 20
1.03531497
 10
1.8774899224
 20
1.0459576605
 10
1.8837348068
 20
1.0563364825
 10
1.8906833403
 20
1.066275524
 10
1.8982475665
 20
1.0759506972
 10
1.9063395295
 20
1.0851860897
 10
1.9151351414
 20
1.0941576139
 10
1.9244584901
 20
1.1027773136
 10
1.9344854877
 20
1.1110451888
 10
1.9344854877
 20
1.1110451888
 10
1.9501416769
 20
1.1222156159
 10
1.966413559
 20
1.1320667013
 10
1.9832131778
 20
1.1405104888
 10
2.0007164456
 20
1.1476349344
 10
2.0185715378
 20
1.1532641261
 10
2.03642663
 20
1.1573101076
 10
2.0544576345
 20
1.1597728789
 10
2.0724886389
 20
1.160564484
 10
2.0724886389
 20
1.160564484
 10
2.0844506712
 20
1.1602126595
 10
2.0964127034
 20
1.1592451422
 10
2.1081108673
 20
1.1575739759
 10
2.1198090312
 20
1.1552871168
 10
2.1313312828
 20
1.1522966088
 10
2.1428535344
 20
1.1486024517
 10
2.1541119177
 20
1.1442926019
 10
2.165370301
 20
1.1393670592
 10
2.1868315941
 20
1.1278448076
 10
2.2066217209
 20
1.1145634336
 10
2.2246527254
 20
1.099434981
 10
2.2410125636
 20
1.0825474061
 10
2.2410125636
 20
1.0825474061
 10
2.2536782448
 20
1.0668032607
 10
2.2646727597
 20
1.0506193348
 10
2.2739081522
 20
1.0340835844
 10
2.2815603346
 20
1.0171080533
 10
2.2874533946
 20
0.9996927417
 10
2.2916752884
 20
0.9818376495
 10
2.2941380597
 20
0.9635427766
 10
2.2950176209
 20
0.9448960793
 10
2.2950176209
 20
0.9448960793
 10
2.2941380597
 20
0.926249382
 10
2.2915873322
 20
0.9078665531
 10
2.2873654385
 20
0.8896596364
 10
2.2813844224
 20
0.871716588
 10
2.2736442839
 20
0.8541253642
 10
2.264145023
 20
0.837061877
 10
2.2527986836
 20
0.8204381705
 10
2.2396932218
 20
0.8044301567
 10
2.2396932218
 20
0.8044301567
 10
2.2233333836
 20
0.7876305379
 10
2.205214423
 20
0.7726779977
 10
2.1851604278
 20
0.7594845798
 10
2.1632593541
 20
0.7480502842
 10
2.1518250586
 20
0.7431247416
 10
2.1402148508
 20
0.7389028478
 10
2.1284287309
 20
0.7352966469
 10
2.1164666986
 20
0.732394095
 10
2.1044167103
 20
0.7300192798
 10
2.0921908097
 20
0.7284360696
 10
2.0797889969
 20
0.7274685523
 10
2.0672112718
 20
0.7271167278
 10
2.0672112718
 20
0.7271167278
 10
2.0436390318
 20
0.7283481135
 10
2.0206824847
 20
0.7320422705
 10
1.9981657181
 20
0.7381112428
 10
1.9762646444
 20
0.7467309424
 10
1.9554190441
 20
0.7575495451
 10
1.9360686978
 20
0.7704790947
 10
1.9181256495
 20
0.7853436788
 10
1.9016778552
 20
0.8023192099
 10
1.9016778552
 20
0.8023192099
 10
1.8899796913
 20
0.8168319696
 10
1.8796888253
 20
0.8324002027
 10
1.8708932134
 20
0.8487600409
 10
1.8635048994
 20
0.8661753525
 10
1.8576997955
 20
0.884206357
 10
1.853653814
 20
0.9027650982
 10
1.8511030866
 20
0.9216756638
 10
1.8503114815
 20
0.9410260101
  0
LWPOLYLINE
  5
6D
330
1F
100
AcDbEntity
  8
0
  6
Continuous
 62
     7
100
AcDbPolyline
 90
       72
 70
   128
 43
0.0
 10
1.934748888
 20
0.9363643358
 10
1.935453005
 20
0.9150789549
 10
1.9375639519
 20
0.8948490474
 10
1.9409942405
 20
0.8754987012
 10
1.9458318271
 20
0.8570279161
 10
1.9520767116
 20
0.8396126045
 10
1.9597288939
 20
0.823076854
 10
1.9687883742
 20
0.8075086209
 10
1.9791671963
 20
0.7929079051
 10
1.9791671963
 20
0.7929079051
 10
1.989985799
 20
0.7802422239
 10
2.0006284894
 20
0.7696874896
 10
2.0111832238
 20
0.761155746
 10
2.021650002
 20
0.7547349493
 10
2.0324686046
 20
0.750073275
 10
2.0440788124
 20
0.7467309424
 10
2.0563926691
 20
0.7447079517
 10
2.069586087
 20
0.7440043027
 10
2.069586087
 20
0.7440043027
 10
2.0840108906
 20
0.7447079517
 10
2.0974681768
 20
0.7469068547
 10
2.1100459019
 20
0.7504250995
 10
2.1217440658
 20
0.7554385983
 10
2.1329144929
 20
0.7620353072
 10
2.1438210517
 20
0.7705670508
 10
2.1544637422
 20
0.7807699606
 10
2.1648425643
 20
0.7929079051
 10
2.1648425643
 20
0.7929079051
 10
2.1755732108
 20
0.8079484015
 10
2.1848965595
 20
0.8239564152
 10
2.1927246541
 20
0.8406680779
 10
2.1991454508
 20
0.8583472579
 10
2.2041589496
 20
0.876818043
 10
2.2077651505
 20
0.8962563453
 10
2.2098760974
 20
0.9163982967
 10
2.2105797463
 20
0.9375077653
 10
2.2105797463
 20
0.9375077653
 10
2.2097881412
 20
0.9608161369
 10
2.207413326
 20
0.9835967718
 10
2.2033673445
 20
1.0056737578
 10
2.197826109
 20
1.0271350509
 10
2.1908775756
 20
1.0474529145
 10
2.1826976565
 20
1.0661875679
 10
2.1731983956
 20
1.0832510551
 10
2.162467749
 20
1.098643376
 10
2.162467749
 20
1.098643376
 10
2.1531444004
 20
1.1096378909
 10
2.143293315
 20
1.1190491956
 10
2.1329144929
 20
1.1267893341
 10
2.1220079341
 20
1.1329462625
 10
2.1103977264
 20
1.1376079368
 10
2.0978200013
 20
1.1410382255
 10
2.0841868028
 20
1.1429732601
 10
2.069586087
 20
1.1436769091
 10
2.069586087
 20
1.1436769091
 10
2.0561288007
 20
1.1430612162
 10
2.0437269879
 20
1.1412141377
 10
2.0321167802
 20
1.1381356735
 10
2.0215620458
 20
1.1338258237
 10
2.0114470921
 20
1.1279327637
 10
2.0014200945
 20
1.1201926252
 10
1.9913051408
 20
1.1103415398
 10
1.9812781432
 20
1.098643376
 10
1.9812781432
 20
1.098643376
 10
1.9711631895
 20
1.0841306163
 10
1.9621916653
 20
1.0676828219
 10
1.9541876584
 20
1.0492120369
 10
1.9473270811
 20
1.0287182611
 10
1.9417858456
 20
1.0069051435
 10
1.9379157763
 20
0.9842124647
 10
1.9355409611
 20
0.9607281808
 10
1.9347493561
 20
0.9363643358
  0
LWPOLYLINE
  5
6E
330
1F
100
AcDbEntity
  8
0
  6
Continuous
 62
     7
100
AcDbPolyline
 90
      144
 70
   128
 43
0.0
 10
2.8572320938
 20
1.1329462625
 10
2.8461506647
 20
1.1322426135
 10
2.8370911844
 20
1.1312750962
 10
2.830142651
 20
1.1301316667
 10
2.8252171083
 20
1.1288123249
 10
2.8212590829
 20
1.1270532025
 10
2.8172131014
 20
1.124502475
 10
2.8129912077
 20
1.1211601425
 10
2.8086813579
 20
1.117114161
 10
2.8086813579
 20
1.117114161
 10
2.8051631131
 20
1.1128043112
 10
2.8020846489
 20
1.1068232951
 10
2.8007653071
 20
1.1030411819
 10
2.7996218776
 20
1.098643376
 10
2.7986543603
 20
1.0936298771
 10
2.7979507113
 20
1.0879127294
 10
2.7979507113
 20
1.0879127294
 10
2.7970711501
 20
1.0804364592
 10
2.7965434134
 20
1.0719926718
 10
2.7961036328
 20
1.0626693231
 10
2.7960156767
 20
1.0523784572
 10
2.7960156767
 20
1.0523784572
 10
2.7960156767
 20
0.8353027546
 10
2.7960156767
 20
0.8353027546
 10
2.7961915889
 20
0.8210538633
 10
2.7968952379
 20
0.8088279627
 10
2.7979507113
 20
0.7986250529
 10
2.7994459653
 20
0.7904451338
 10
2.8012930438
 20
0.7839363809
 10
2.8034919468
 20
0.7783951454
 10
2.8058667621
 20
0.7739973394
 10
2.8085934018
 20
0.7706550069
 10
2.8085934018
 20
0.7706550069
 10
2.8125514271
 20
0.7673126744
 10
2.8171251453
 20
0.7643221663
 10
2.8223145564
 20
0.7616834827
 10
2.8281196602
 20
0.7595725359
 10
2.8344525008
 20
0.7577254574
 10
2.8414889904
 20
0.7563181595
 10
2.8490532167
 20
0.755262686
 10
2.8572331357
 20
0.7546469932
 10
2.8572331357
 20
0.7546469932
 10
2.8572331357
 20
0.7383751111
 10
2.8572331357
 20
0.7383751111
 10
2.6548461051
 20
0.7383751111
 10
2.6548461051
 20
0.7383751111
 10
2.6548461051
 20
0.7549108615
 10
2.6548461051
 20
0.7549108615
 10
2.6648731027
 20
0.7556145105
 10
2.6734048463
 20
0.7565820278
 10
2.6803533797
 20
0.7579013696
 10
2.6858066591
 20
0.7594845798
 10
2.6947781833
 20
0.764058298
 10
2.7028701463
 20
0.7705670508
 10
2.7028701463
 20
0.7705670508
 10
2.7065643033
 20
0.7749648568
 10
2.7096427675
 20
0.7801542678
 10
2.7121934949
 20
0.7858714156
 10
2.7140405735
 20
0.7923801684
 10
2.7154478714
 20
0.800208263
 10
2.7164153887
 20
0.8099713923
 10
2.7170310815
 20
0.8216695561
 10
2.7172069938
 20
0.8353027546
 10
2.7172069938
 20
0.8353027546
 10
2.7172069938
 20
1.0929262282
 10
2.7172069938
 20
1.0929262282
 10
2.5794677109
 20
0.7383751111
 10
2.5794677109
 20
0.7383751111
 10
2.5607330574
 20
0.7383751111
 10
2.5607330574
 20
0.7383751111
 10
2.4244890286
 20
1.087648861
 10
2.4244890286
 20
1.087648861
 10
2.4244890286
 20
0.8353027546
 10
2.4244890286
 20
0.8353027546
 10
2.4246649408
 20
0.8210538633
 10
2.4252806336
 20
0.8088279627
 10
2.4263361071
 20
0.798713009
 10
2.427743405
 20
0.7907090021
 10
2.4295904835
 20
0.7842002493
 10
2.4317893865
 20
0.7786590138
 10
2.4342521578
 20
0.7741732517
 10
2.4370667536
 20
0.7705670508
 10
2.4370667536
 20
0.7705670508
 10
2.4412006912
 20
0.7666090254
 10
2.445422585
 20
0.7632666929
 10
2.4494685665
 20
0.7607159654
 10
2.4536025041
 20
0.7588688869
 10
2.458703959
 20
0.757461589
 10
2.4659163608
 20
0.7563181595
 10
2.4751517533
 20
0.7553506421
 10
2.4864980927
 20
0.7546469932
 10
2.4864980927
 20
0.7546469932
 10
2.4864980927
 20
0.7383751111
 10
2.4864980927
 20
0.7383751111
 10
2.3351256113
 20
0.7383751111
 10
2.3351256113
 20
0.7383751111
 10
2.3351256113
 20
0.7549108615
 10
2.3351256113
 20
0.7549108615
 10
2.3448007844
 20
0.7556145105
 10
2.3530686597
 20
0.7565820278
 10
2.3598412808
 20
0.7579013696
 10
2.3652945602
 20
0.7594845798
 10
2.3742660844
 20
0.764058298
 10
2.382094179
 20
0.7705670508
 10
2.382094179
 20
0.7705670508
 10
2.3857883361
 20
0.7750528129
 10
2.3888668002
 20
0.7802422239
 10
2.3913295716
 20
0.7860473278
 10
2.3931766501
 20
0.7924681245
 10
2.394583948
 20
0.8002962191
 10
2.3955514653
 20
0.8099713923
 10
2.3961671581
 20
0.8216695561
 10
2.3963430704
 20
0.8353027546
 10
2.3963430704
 20
0.8353027546
 10
2.3963430704
 20
1.0523784572
 10
2.3963430704
 20
1.0523784572
 10
2.3961671581
 20
1.0653080067
 10
2.3954635092
 20
1.0775339073
 10
2.3954635092
 20
1.0775339073
 10
2.394583948
 20
1.0871211243
 10
2.3932646062
 20
1.0952130873
 10
2.3915054838
 20
1.1018977524
 10
2.3893945369
 20
1.1071751195
 10
2.3893945369
 20
1.1071751195
 10
2.3858762922
 20
1.1128922673
 10
2.3816543984
 20
1.11781781
 10
2.376904768
 20
1.1220397037
 10
2.3714514886
 20
1.1253820362
 10
2.3649427358
 20
1.1281086759
 10
2.3566748606
 20
1.1302196228
 10
2.3467358191
 20
1.1317148768
 10
2.3351256113
 20
1.1326823941
 10
2.3351256113
 20
1.1326823941
 10
2.3351256113
 20
1.1493061007
 10
2.3351256113
 20
1.1493061007
 10
2.4764710951
 20
1.1493061007
 10
2.4764710951
 20
1.1493061007
 10
2.5971468908
 20
0.8356545791
 10
2.5971468908
 20
0.8356545791
 10
2.7221325364
 20
1.1493061007
 10
2.7221325364
 20
1.1493061007
 10
2.8572331357
 20
1.1493061007
 10
2.8572331357
 20
1.1493061007
 10
2.8572331357
 20
1.1329462625
  0
LWPOLYLINE
  5
6F
330
1F
100
AcDbEntity
  8
0
  6
Continuous
 62
     7
100
AcDbPolyline
 90
      102
 70
   128
 43
0.0
 10
3.3080071211
 20
0.7383751111
 10
3.0999920251
 20
0.7383751111
 10
3.0999920251
 20
0.7383751111
 10
3.0999920251
 20
0.7547349493
 10
3.0999920251
 20
0.7547349493
 10
3.107292383
 20
0.7554385983
 10
3.1139770481
 20
0.7562302033
 10
3.1200460204
 20
0.7571097645
 10
3.1254113436
 20
0.758165238
 10
3.130073018
 20
0.7592207114
 10
3.1341189994
 20
0.7604520971
 10
3.137461332
 20
0.7616834827
 10
3.1401879717
 20
0.7630907806
 10
3.1401879717
 20
0.7630907806
 10
3.1472244612
 20
0.7683681478
 10
3.15223796
 20
0.7745250762
 10
3.1553164242
 20
0.7815615657
 10
3.1562839415
 20
0.7894776165
 10
3.1562839415
 20
0.7894776165
 10
3.1557562048
 20
0.7952827203
 10
3.1543489069
 20
0.8021432976
 10
3.1518861356
 20
0.8101473045
 10
3.1484558469
 20
0.8191188287
 10
3.1484558469
 20
0.8191188287
 10
3.1435303042
 20
0.8312567731
 10
3.1435303042
 20
0.8312567731
 10
3.1169675562
 20
0.895992477
 10
3.1169675562
 20
0.895992477
 10
3.001832996
 20
0.895992477
 10
3.001832996
 20
0.895992477
 10
2.9881118413
 20
0.8596665997
 10
2.9881118413
 20
0.8596665997
 10
2.9808994395
 20
0.8416355952
 10
2.9808994395
 20
0.8416355952
 10
2.9755341163
 20
0.8275626161
 10
2.971664047
 20
0.8148969349
 10
2.9693771879
 20
0.8037265078
 10
2.9685855828
 20
0.7938754224
 10
2.9685855828
 20
0.7938754224
 10
2.9688494512
 20
0.7885980553
 10
2.9696410563
 20
0.7836725126
 10
2.9710483542
 20
0.7790108382
 10
2.9728954327
 20
0.7747889445
 10
2.9772052825
 20
0.7678404111
 10
2.9816030885
 20
0.7634426051
 10
2.9816030885
 20
0.7634426051
 10
2.9876720607
 20
0.7601882287
 10
2.9953242431
 20
0.7575495451
 10
3.0046475918
 20
0.7556145105
 10
3.0155541506
 20
0.7543831248
 10
3.0155541506
 20
0.7543831248
 10
3.0155541506
 20
0.7383751111
 10
3.0155541506
 20
0.7383751111
 10
2.8635659763
 20
0.7383751111
 10
2.8635659763
 20
0.7383751111
 10
2.8635659763
 20
0.7549108615
 10
2.8635659763
 20
0.7549108615
 10
2.872889325
 20
0.7557904227
 10
2.8810692441
 20
0.7572856768
 10
2.8881936898
 20
0.7593966236
 10
2.8941747059
 20
0.7621232633
 10
2.8996279853
 20
0.7657294642
 10
2.9049933086
 20
0.7703031824
 10
2.9103586318
 20
0.775844418
 10
2.9157239551
 20
0.7823531708
 10
2.9157239551
 20
0.7823531708
 10
2.9203856294
 20
0.7886860114
 10
2.9249593476
 20
0.7958984132
 10
2.9295330659
 20
0.8038144639
 10
2.9339308718
 20
0.8125221197
 10
2.9386805023
 20
0.8229009418
 10
2.9441337817
 20
0.8357425352
 10
2.9502027539
 20
0.8509589439
 10
2.9569753751
 20
0.86872608
 10
2.9569753751
 20
0.86872608
 10
3.0623468061
 20
1.1493061007
 10
3.0623468061
 20
1.1493061007
 10
3.0919880183
 20
1.1493061007
 10
3.0919880183
 20
1.1493061007
 10
3.22295468
 20
0.8371498331
 10
3.22295468
 20
0.8371498331
 10
3.226648837
 20
0.8282662651
 10
3.2300791257
 20
0.8199983899
 10
3.233245546
 20
0.8125221197
 10
3.236236054
 20
0.8058374546
 10
3.2390506498
 20
0.7997684824
 10
3.2415134212
 20
0.7944911153
 10
3.2438002803
 20
0.789917397
 10
3.2459112271
 20
0.7860473278
 10
3.2497812964
 20
0.7796265311
 10
3.2534754534
 20
0.7742612078
 10
3.2570816543
 20
0.7700393141
 10
3.2604239868
 20
0.7669608499
 10
3.2604239868
 20
0.7669608499
 10
3.2676363886
 20
0.7622991756
 10
3.2748487904
 20
0.7592207114
 10
3.279686377
 20
0.7580772818
 10
3.2868108226
 20
0.7567579401
 10
3.2962221274
 20
0.7554385983
 10
3.3080082474
 20
0.7540313004
 10
3.3080082474
 20
0.7540313004
 10
3.3080082474
 20
0.7383751111
  0
LWPOLYLINE
  5
70
330
1F
100
AcDbEntity
  8
0
  6
Continuous
 62
     7
100
AcDbPolyline
 90
        6
 70
   128
 43
0.0
 10
3.1105458736
 20
0.9185092435
 10
3.0577730879
 20
1.0615258936
 10
3.0577730879
 20
1.0615258936
 10
3.0087815294
 20
0.9185092435
 10
3.0087815294
 20
0.9185092435
 10
3.1105467595
 20
0.9185092435
  0
LWPOLYLINE
  5
71
330
1F
100
AcDbEntity
  8
0
  6
Continuous
 62
     7
100
AcDbPolyline
 90
      101
 70
   128
 43
0.0
 10
3.4715175629
 20
1.1324185258
 10
3.4647460521
 20
1.1323305697
 10
3.4569179574
 20
1.1321546574
 10
3.4480343894
 20
1.1318028329
 10
3.438183304
 20
1.1312750962
 10
3.438183304
 20
1.1312750962
 10
3.4280683503
 20
1.1306594034
 10
3.4186570455
 20
1.1297798422
 10
3.4099493897
 20
1.1288123249
 10
3.4019453829
 20
1.1276688953
 10
3.394645025
 20
1.1262615974
 10
3.3881362721
 20
1.1246783873
 10
3.3822432121
 20
1.123007221
 10
3.3770538011
 20
1.1210721864
 10
3.3678184086
 20
1.1161466437
 10
3.3591107527
 20
1.1094619786
 10
3.3511067459
 20
1.1009302351
 10
3.3436304757
 20
1.090551413
 10
3.3436304757
 20
1.090551413
 10
3.3407279238
 20
1.0856258703
 10
3.3380012841
 20
1.0799966786
 10
3.3353626005
 20
1.0736638381
 10
3.3328118731
 20
1.0666273485
 10
3.3303491017
 20
1.0589751661
 10
3.3280622426
 20
1.0505313787
 10
3.3258633396
 20
1.0414718984
 10
3.3237523928
 20
1.0317087691
 10
3.3237523928
 20
1.0317087691
 10
3.3026429241
 20
1.0328521987
 10
3.3026429241
 20
1.0328521987
 10
3.3085359841
 20
1.1493061007
 10
3.3085359841
 20
1.1493061007
 10
3.7131341331
 20
1.1493061007
 10
3.7131341331
 20
1.1493061007
 10
3.7192031053
 20
1.0334678915
 10
3.7192031053
 20
1.0334678915
 10
3.6977418122
 20
1.0317087691
 10
3.6977418122
 20
1.0317087691
 10
3.6955429092
 20
1.0424394157
 10
3.6930801379
 20
1.0523784572
 10
3.6903534982
 20
1.0615258936
 10
3.6875389024
 20
1.069969681
 10
3.6843724821
 20
1.0776218634
 10
3.6810301495
 20
1.0844824407
 10
3.6774239486
 20
1.0906393691
 10
3.6736418355
 20
1.0960046924
 10
3.6649341797
 20
1.1052400849
 10
3.6544674015
 20
1.1131561356
 10
3.6421535448
 20
1.1195769324
 10
3.6280805657
 20
1.1245904312
 10
3.6280805657
 20
1.1245904312
 10
3.6211320323
 20
1.1264375097
 10
3.6133918938
 20
1.1280207198
 10
3.6048601502
 20
1.1293400616
 10
3.5955368015
 20
1.1304834912
 10
3.5854218478
 20
1.1312750962
 10
3.574515289
 20
1.1318907891
 10
3.5628171251
 20
1.1323305697
 10
3.5503273562
 20
1.1324185258
 10
3.5503273562
 20
1.1324185258
 10
3.5503273562
 20
0.8358304913
 10
3.5503273562
 20
0.8358304913
 10
3.5505032684
 20
0.8216695561
 10
3.5511189613
 20
0.8094436555
 10
3.5521744347
 20
0.7993287018
 10
3.5535817326
 20
0.7912367388
 10
3.5554288111
 20
0.7846400299
 10
3.557539758
 20
0.7790987944
 10
3.5600904854
 20
0.7743491639
 10
3.5629930374
 20
0.7706550069
 10
3.5629930374
 20
0.7706550069
 10
3.5712609126
 20
0.7634426051
 10
3.5794408317
 20
0.758956843
 10
3.5846302427
 20
0.7575495451
 10
3.5917546884
 20
0.7563181595
 10
3.6009900809
 20
0.7553506421
 10
3.6122484642
 20
0.7546469932
 10
3.6122484642
 20
0.7546469932
 10
3.6122484642
 20
0.7383751111
 10
3.6122484642
 20
0.7383751111
 10
3.4095975652
 20
0.7383751111
 10
3.4095975652
 20
0.7383751111
 10
3.4095975652
 20
0.7549108615
 10
3.4095975652
 20
0.7549108615
 10
3.4195366067
 20
0.7556145105
 10
3.4280683503
 20
0.7565820278
 10
3.4349289276
 20
0.7578134135
 10
3.440382207
 20
0.7593966236
 10
3.4492657751
 20
0.7639703418
 10
3.4571818258
 20
0.7706550069
 10
3.4571818258
 20
0.7706550069
 10
3.4608759828
 20
0.7752287251
 10
3.463954447
 20
0.78033018
 10
3.4665051745
 20
0.7861352839
 10
3.468352253
 20
0.7925560806
 10
3.4697595509
 20
0.8003841752
 10
3.4707270682
 20
0.8101473045
 10
3.471342761
 20
0.8220213806
 10
3.4715186733
 20
0.8358304913
 10
3.4715186733
 20
0.8358304913
 10
3.4715186733
 20
1.1324185258
  0
LWPOLYLINE
  5
72
330
1F
100
AcDbEntity
  8
0
  6
Continuous
 62
     7
100
AcDbPolyline
 90
       85
 70
   128
 43
0.0
 10
3.9380371571
 20
1.1493061007
 10
3.9380379303
 20
1.1329462625
 10
3.9380379303
 20
1.1329462625
 10
3.9269554592
 20
1.1322426135
 10
3.9178080228
 20
1.1312750962
 10
3.9107715333
 20
1.1301316667
 10
3.9057580345
 20
1.1287243688
 10
3.9018000091
 20
1.1268772903
 10
3.8977540276
 20
1.1243265628
 10
3.89362009
 20
1.1210721864
 10
3.8893981963
 20
1.1170262049
 10
3.8893981963
 20
1.1170262049
 10
3.8856160831
 20
1.11192475
 10
3.8824496628
 20
1.105328041
 10
3.8800748476
 20
1.0971481219
 10
3.8784036814
 20
1.0874729488
 10
3.8784036814
 20
1.0874729488
 10
3.8777000324
 20
1.0799966786
 10
3.8772602518
 20
1.0717288034
 10
3.8769084273
 20
1.0624934109
 10
3.8768204712
 20
1.0523784572
 10
3.8768204712
 20
1.0523784572
 10
3.8768204712
 20
0.8353027546
 10
3.8768204712
 20
0.8353027546
 10
3.8769963834
 20
0.8236925469
 10
3.877436164
 20
0.8133137248
 10
3.878139813
 20
0.8043422006
 10
3.8791073303
 20
0.7966900182
 10
3.880338716
 20
0.7902692215
 10
3.8817460139
 20
0.7848159421
 10
3.8832412679
 20
0.7804181362
 10
3.8849124342
 20
0.7769878475
 10
3.8849124342
 20
0.7769878475
 10
3.8888704596
 20
0.771446612
 10
3.8930043972
 20
0.7668728938
 10
3.897314247
 20
0.7632666929
 10
3.9018000091
 20
0.7605400532
 10
3.9075171569
 20
0.7585170624
 10
3.9155211637
 20
0.7568458962
 10
3.9256361174
 20
0.7555265544
 10
3.9380379303
 20
0.7545590371
 10
3.9380379303
 20
0.7545590371
 10
3.9380379303
 20
0.7383751111
 10
3.9380379303
 20
0.7383751111
 10
3.7367943292
 20
0.7383751111
 10
3.7367943292
 20
0.7383751111
 10
3.7367943292
 20
0.7549108615
 10
3.7367943292
 20
0.7549108615
 10
3.7467333707
 20
0.7556145105
 10
3.755089202
 20
0.7565820278
 10
3.7620377355
 20
0.7579013696
 10
3.7674030587
 20
0.7594845798
 10
3.7761986707
 20
0.764058298
 10
3.7837628969
 20
0.7705670508
 10
3.7837628969
 20
0.7705670508
 10
3.7875450101
 20
0.775140769
 10
3.7907114304
 20
0.7802422239
 10
3.7931742017
 20
0.7860473278
 10
3.7950212802
 20
0.7923801684
 10
3.796340622
 20
0.8001203069
 10
3.7973081393
 20
0.80979548
 10
3.797835876
 20
0.8215816
 10
3.7980117883
 20
0.8353027546
 10
3.7980117883
 20
0.8353027546
 10
3.7980117883
 20
1.0523784572
 10
3.7980117883
 20
1.0523784572
 10
3.797835876
 20
1.0660996118
 10
3.7973081393
 20
1.0777977757
 10
3.796340622
 20
1.0875609049
 10
3.7950212802
 20
1.0952130873
 10
3.7931742017
 20
1.101633884
 10
3.7907114304
 20
1.1074389879
 10
3.7875450101
 20
1.1125404428
 10
3.7837628969
 20
1.1170262049
 10
3.7837628969
 20
1.1170262049
 10
3.7761107146
 20
1.1236229138
 10
3.7671391904
 20
1.1281086759
 10
3.761685911
 20
1.1296918861
 10
3.7547373776
 20
1.1310112279
 10
3.7464695023
 20
1.1319787452
 10
3.7367943292
 20
1.1326823941
 10
3.7367943292
 20
1.1326823941
 10
3.7367943292
 20
1.1493061007
 10
3.7367943292
 20
1.1493061007
 10
3.9380379303
 20
1.1493061007
  0
LWPOLYLINE
  5
73
330
1F
100
AcDbEntity
  8
0
  6
Continuous
 62
     7
100
AcDbPolyline
 90
       88
 70
   128
 43
0.0
 10
3.9725154638
 20
0.9410260101
 10
3.9728685535
 20
0.9536037352
 10
3.9738360708
 20
0.966005548
 10
3.9755072371
 20
0.9781434924
 10
3.9778820523
 20
0.9901055247
 10
3.9808725604
 20
1.0017157324
 10
3.9845667174
 20
1.0131500279
 10
3.9889645234
 20
1.0243204551
 10
3.9939780222
 20
1.03531497
 10
3.9996951699
 20
1.0459576605
 10
4.0059400544
 20
1.0563364825
 10
4.0128885878
 20
1.066275524
 10
4.0204528141
 20
1.0759506972
 10
4.0285447771
 20
1.0851860897
 10
4.037340389
 20
1.0941576139
 10
4.0466637377
 20
1.1027773136
 10
4.0566907353
 20
1.1110451888
 10
4.0566907353
 20
1.1110451888
 10
4.0723469245
 20
1.1222156159
 10
4.0886188066
 20
1.1320667013
 10
4.1054184254
 20
1.1405104888
 10
4.1229216931
 20
1.1476349344
 10
4.1407767854
 20
1.1532641261
 10
4.1586318776
 20
1.1573101076
 10
4.1766628821
 20
1.1597728789
 10
4.1946938865
 20
1.160564484
 10
4.1946938865
 20
1.160564484
 10
4.2066559188
 20
1.1602126595
 10
4.218617951
 20
1.1592451422
 10
4.2303161149
 20
1.1575739759
 10
4.2420142787
 20
1.1552871168
 10
4.2535365304
 20
1.1522966088
 10
4.265058782
 20
1.1486024517
 10
4.2763171653
 20
1.1442926019
 10
4.2875755486
 20
1.1393670592
 10
4.3090368417
 20
1.1278448076
 10
4.3288269685
 20
1.1145634336
 10
4.346857973
 20
1.099434981
 10
4.3632178112
 20
1.0825474061
 10
4.3632178112
 20
1.0825474061
 10
4.3758834924
 20
1.0668032607
 10
4.3868780073
 20
1.0506193348
 10
4.3961133998
 20
1.0340835844
 10
4.4037655822
 20
1.0171080533
 10
4.4096586422
 20
0.9996927417
 10
4.4138805359
 20
0.9818376495
 10
4.4163433073
 20
0.9635427766
 10
4.4172228685
 20
0.9448960793
 10
4.4172228685
 20
0.9448960793
 10
4.4163433073
 20
0.926249382
 10
4.4137925798
 20
0.9078665531
 10
4.4095706861
 20
0.8896596364
 10
4.40358967
 20
0.871716588
 10
4.3958495315
 20
0.8541253642
 10
4.3863502706
 20
0.837061877
 10
4.3750039312
 20
0.8204381705
 10
4.3618984694
 20
0.8044301567
 10
4.3618984694
 20
0.8044301567
 10
4.3455386312
 20
0.7876305379
 10
4.3274196706
 20
0.7726779977
 10
4.3073656754
 20
0.7594845798
 10
4.2854646017
 20
0.7480502842
 10
4.2740303062
 20
0.7431247416
 10
4.2624200984
 20
0.7389028478
 10
4.2506339784
 20
0.7352966469
 10
4.2386719462
 20
0.732394095
 10
4.2266219578
 20
0.7300192798
 10
4.2143960573
 20
0.7284360696
 10
4.2019942444
 20
0.7274685523
 10
4.1894165194
 20
0.7271167278
 10
4.1894165194
 20
0.7271167278
 10
4.1658442794
 20
0.7283481135
 10
4.1428877322
 20
0.7320422705
 10
4.1203709657
 20
0.7381112428
 10
4.098469892
 20
0.7467309424
 10
4.0776242917
 20
0.7575495451
 10
4.0582739454
 20
0.7704790947
 10
4.0403308971
 20
0.7853436788
 10
4.0238831028
 20
0.8023192099
 10
4.0238831028
 20
0.8023192099
 10
4.0121849389
 20
0.8168319696
 10
4.0018940729
 20
0.8324002027
 10
3.993098461
 20
0.8487600409
 10
3.985710147
 20
0.8661753525
 10
3.9799050431
 20
0.884206357
 10
3.9758590616
 20
0.9027650982
 10
3.9733083341
 20
0.9216756638
 10
3.9725167291
 20
0.9410260101
  0
LWPOLYLINE
  5
74
330
1F
100
AcDbEntity
  8
0
  6
Continuous
 62
     7
100
AcDbPolyline
 90
       72
 70
   128
 43
0.0
 10
4.0569543839
 20
0.9363643358
 10
4.0576582526
 20
0.9150789549
 10
4.0597691994
 20
0.8948490474
 10
4.0631994881
 20
0.8754987012
 10
4.0680370747
 20
0.8570279161
 10
4.0742819591
 20
0.8396126045
 10
4.0819341415
 20
0.823076854
 10
4.0909936218
 20
0.8075086209
 10
4.1013724439
 20
0.7929079051
 10
4.1013724439
 20
0.7929079051
 10
4.1121910466
 20
0.7802422239
 10
4.122833737
 20
0.7696874896
 10
4.1333884713
 20
0.761155746
 10
4.1438552495
 20
0.7547349493
 10
4.1546738522
 20
0.750073275
 10
4.16628406
 20
0.7467309424
 10
4.1785979167
 20
0.7447079517
 10
4.1917913346
 20
0.7440043027
 10
4.1917913346
 20
0.7440043027
 10
4.2062161382
 20
0.7447079517
 10
4.2196734244
 20
0.7469068547
 10
4.2322511495
 20
0.7504250995
 10
4.2439493134
 20
0.7554385983
 10
4.2551197405
 20
0.7620353072
 10
4.2660262993
 20
0.7705670508
 10
4.2766689898
 20
0.7807699606
 10
4.2870478118
 20
0.7929079051
 10
4.2870478118
 20
0.7929079051
 10
4.2977784584
 20
0.8079484015
 10
4.307101807
 20
0.8239564152
 10
4.3149299017
 20
0.8406680779
 10
4.3213506984
 20
0.8583472579
 10
4.3263641972
 20
0.876818043
 10
4.3299703981
 20
0.8962563453
 10
4.3320813449
 20
0.9163982967
 10
4.3327849939
 20
0.9375077653
 10
4.3327849939
 20
0.9375077653
 10
4.3319933888
 20
0.9608161369
 10
4.3296185736
 20
0.9835967718
 10
4.3255725921
 20
1.0056737578
 10
4.3200313566
 20
1.0271350509
 10
4.3130828232
 20
1.0474529145
 10
4.3049029041
 20
1.0661875679
 10
4.2954036432
 20
1.0832510551
 10
4.2846729966
 20
1.098643376
 10
4.2846729966
 20
1.098643376
 10
4.275349648
 20
1.1096378909
 10
4.2654985626
 20
1.1190491956
 10
4.2551197405
 20
1.1267893341
 10
4.2442131817
 20
1.1329462625
 10
4.232602974
 20
1.1376079368
 10
4.2200252489
 20
1.1410382255
 10
4.2063920504
 20
1.1429732601
 10
4.1917913346
 20
1.1436769091
 10
4.1917913346
 20
1.1436769091
 10
4.1783340483
 20
1.1430612162
 10
4.1659322355
 20
1.1412141377
 10
4.1543220277
 20
1.1381356735
 10
4.1437672934
 20
1.1338258237
 10
4.1336523397
 20
1.1279327637
 10
4.1236253421
 20
1.1201926252
 10
4.1135103884
 20
1.1103415398
 10
4.1034833908
 20
1.098643376
 10
4.1034833908
 20
1.098643376
 10
4.093368437
 20
1.0841306163
 10
4.0843969129
 20
1.0676828219
 10
4.076392906
 20
1.0492120369
 10
4.0695323287
 20
1.0287182611
 10
4.0639910932
 20
1.0069051435
 10
4.0601210239
 20
0.9842124647
 10
4.0577462087
 20
0.9607281808
 10
4.0569546036
 20
0.9363643358
  0
LWPOLYLINE
  5
75
330
1F
100
AcDbEntity
  8
0
  6
Continuous
 62
     7
100
AcDbPolyline
 90
      114
 70
   128
 43
0.0
 10
4.5466929674
 20
1.0858897386
 10
4.5466942761
 20
0.8353027546
 10
4.5466942761
 20
0.8353027546
 10
4.5468701884
 20
0.8210538633
 10
4.5474858812
 20
0.8088279627
 10
4.5485413546
 20
0.798713009
 10
4.5499486526
 20
0.7907090021
 10
4.5517957311
 20
0.7842002493
 10
4.553994634
 20
0.7787469699
 10
4.5565453615
 20
0.7741732517
 10
4.5594479134
 20
0.7705670508
 10
4.5594479134
 20
0.7705670508
 10
4.5635818511
 20
0.7666090254
 10
4.5678037448
 20
0.7632666929
 10
4.5718497263
 20
0.7607159654
 10
4.5759836639
 20
0.7588688869
 10
4.5811730749
 20
0.757461589
 10
4.5883854767
 20
0.7563181595
 10
4.5977088254
 20
0.7553506421
 10
4.6091431209
 20
0.7546469932
 10
4.6091431209
 20
0.7546469932
 10
4.6091431209
 20
0.7383751111
 10
4.6091431209
 20
0.7383751111
 10
4.4573308589
 20
0.7383751111
 10
4.4573308589
 20
0.7383751111
 10
4.4573308589
 20
0.7549108615
 10
4.4573308589
 20
0.7549108615
 10
4.467006032
 20
0.7556145105
 10
4.4752739072
 20
0.7565820278
 10
4.4820465284
 20
0.7579013696
 10
4.4874998078
 20
0.7594845798
 10
4.496471332
 20
0.764058298
 10
4.5042994266
 20
0.7705670508
 10
4.5042994266
 20
0.7705670508
 10
4.5079935836
 20
0.7750528129
 10
4.5110720478
 20
0.7802422239
 10
4.5135348191
 20
0.7860473278
 10
4.5153818977
 20
0.7924681245
 10
4.5167891956
 20
0.8002962191
 10
4.5177567129
 20
0.8099713923
 10
4.5183724057
 20
0.8216695561
 10
4.518548318
 20
0.8353027546
 10
4.518548318
 20
0.8353027546
 10
4.518548318
 20
1.0526423255
 10
4.518548318
 20
1.0526423255
 10
4.5183724057
 20
1.0660996118
 10
4.5177567129
 20
1.0776218634
 10
4.5167891956
 20
1.0872970366
 10
4.5153818977
 20
1.0950371751
 10
4.5135348191
 20
1.1015459279
 10
4.5110720478
 20
1.1073510318
 10
4.5079056275
 20
1.1125404428
 10
4.5042114705
 20
1.1170262049
 10
4.5042114705
 20
1.1170262049
 10
4.4967352004
 20
1.1236229138
 10
4.4878516323
 20
1.1281086759
 10
4.4823983529
 20
1.1296918861
 10
4.4754498195
 20
1.1310112279
 10
4.4670939881
 20
1.1319787452
 10
4.4573308589
 20
1.1326823941
 10
4.4573308589
 20
1.1326823941
 10
4.4573308589
 20
1.1493061007
 10
4.4573308589
 20
1.1493061007
 10
4.5831081096
 20
1.1493061007
 10
4.5831081096
 20
1.1493061007
 10
4.8112662831
 20
0.8453297522
 10
4.8112662831
 20
0.8453297522
 10
4.8112662831
 20
1.0523784572
 10
4.8112662831
 20
1.0523784572
 10
4.8110903709
 20
1.0660116557
 10
4.8104746781
 20
1.0777098195
 10
4.8094192046
 20
1.0874729488
 10
4.8080119067
 20
1.0952130873
 10
4.8061648282
 20
1.101633884
 10
4.8036141008
 20
1.1074389879
 10
4.8005356366
 20
1.1125404428
 10
4.7967535234
 20
1.1170262049
 10
4.7967535234
 20
1.1170262049
 10
4.7889254288
 20
1.1235349577
 10
4.7796900363
 20
1.1280207198
 10
4.7740608447
 20
1.1296918861
 10
4.7671123112
 20
1.1310112279
 10
4.7586685238
 20
1.1319787452
 10
4.7488174384
 20
1.1326823941
 10
4.7488174384
 20
1.1326823941
 10
4.7488174384
 20
1.1493061007
 10
4.7488174384
 20
1.1493061007
 10
4.9006297004
 20
1.1493061007
 10
4.9006297004
 20
1.1493061007
 10
4.9006297004
 20
1.1324185258
 10
4.9006297004
 20
1.1324185258
 10
4.8924497813
 20
1.1321546574
 10
4.884885555
 20
1.1314510085
 10
4.8779370216
 20
1.1302196228
 10
4.8715162249
 20
1.1285484565
 10
4.865711121
 20
1.1264375097
 10
4.86052171
 20
1.1237988261
 10
4.8559479918
 20
1.1206324058
 10
4.8519020103
 20
1.1170262049
 10
4.8519020103
 20
1.1170262049
 10
4.8490874145
 20
1.1135079601
 10
4.8466246431
 20
1.1089342419
 10
4.8444257401
 20
1.1033930064
 10
4.8426666177
 20
1.0968842536
 10
4.8412593198
 20
1.0888802467
 10
4.8402038464
 20
1.0789412052
 10
4.8395881536
 20
1.0668912169
 10
4.8394122413
 20
1.0529061939
 10
4.8394122413
 20
1.0529061939
 10
4.8394122413
 20
0.7383751111
 10
4.8394122413
 20
0.7383751111
 10
4.8119699321
 20
0.7383751111
 10
4.8119699321
 20
0.7383751111
 10
4.5466942761
 20
1.0858897386
  0
LWPOLYLINE
  5
76
330
1F
100
AcDbEntity
  8
0
  6
Continuous
 62
     7
100
AcDbPolyline
 90
      156
 70
   128
 43
0.0
 10
5.4130613804
 20
1.1493061007
 10
5.4192189801
 20
1.0431430646
 10
5.4192189801
 20
1.0431430646
 10
5.3974058625
 20
1.0423514596
 10
5.3974058625
 20
1.0423514596
 10
5.3949430911
 20
1.0560726142
 10
5.3920405392
 20
1.0681226025
 10
5.3886982066
 20
1.0784134685
 10
5.3848281374
 20
1.0870331682
 10
5.3802544192
 20
1.0945094383
 10
5.3748011398
 20
1.101633884
 10
5.3684682992
 20
1.108230593
 10
5.3611679413
 20
1.1143875213
 10
5.3611679413
 20
1.1143875213
 10
5.3545712323
 20
1.1188732834
 10
5.3472708744
 20
1.1226553965
 10
5.3393548237
 20
1.1258218168
 10
5.3306471679
 20
1.1281966321
 10
5.3209719947
 20
1.1300437106
 10
5.3098015676
 20
1.1313630523
 10
5.2971358864
 20
1.1321546574
 10
5.2830629073
 20
1.1324185258
 10
5.2830629073
 20
1.1324185258
 10
5.2274746399
 20
1.1324185258
 10
5.2274746399
 20
1.1324185258
 10
5.2221972727
 20
0.9635427766
 10
5.2221972727
 20
0.9635427766
 10
5.22905785
 20
0.9635427766
 10
5.22905785
 20
0.9635427766
 10
5.241547619
 20
0.9637186889
 10
5.2522782655
 20
0.9643343817
 10
5.2613377458
 20
0.965301899
 10
5.2685501476
 20
0.9666212408
 10
5.2746191198
 20
0.9684683193
 10
5.2800723992
 20
0.9709310907
 10
5.2848220297
 20
0.9738336426
 10
5.2889559673
 20
0.9773518874
 10
5.2889559673
 20
0.9773518874
 10
5.2955526763
 20
0.9854438504
 10
5.3002143506
 20
0.9949431112
 10
5.3020614291
 20
1.0011000396
 10
5.3039085076
 20
1.0091040465
 10
5.3055796739
 20
1.0191310441
 10
5.3072508401
 20
1.0310930763
 10
5.3072508401
 20
1.0310930763
 10
5.3291519138
 20
1.0302135151
 10
5.3291519138
 20
1.0302135151
 10
5.3291519138
 20
0.8678465188
 10
5.3291519138
 20
0.8678465188
 10
5.3072508401
 20
0.8678465188
 10
5.3072508401
 20
0.8678465188
 10
5.3054917177
 20
0.8805122
 10
5.3035566831
 20
0.8914187588
 10
5.3013577801
 20
0.9005661952
 10
5.2989829649
 20
0.9079545092
 10
5.2962563252
 20
0.9141993937
 10
5.2930899049
 20
0.9200044976
 10
5.2893957479
 20
0.9251939086
 10
5.2852618103
 20
0.929943539
 10
5.2852618103
 20
0.929943539
 10
5.2808640043
 20
0.9339015644
 10
5.2757625494
 20
0.9373318531
 10
5.2699574455
 20
0.9401464489
 10
5.2634486927
 20
0.9425212641
 10
5.2561483348
 20
0.9443683426
 10
5.2478804596
 20
0.9455997283
 10
5.2385571109
 20
0.9463913334
 10
5.2283542011
 20
0.9466552017
 10
5.2283542011
 20
0.9466552017
 10
5.2221972727
 20
0.9466552017
 10
5.2221972727
 20
0.9466552017
 10
5.2221972727
 20
0.8832388397
 10
5.2221972727
 20
0.8832388397
 10
5.2221972727
 20
0.8730359298
 10
5.2222852288
 20
0.8635366689
 10
5.2224611411
 20
0.8548290131
 10
5.2227250094
 20
0.8468250063
 10
5.2229888778
 20
0.8396126045
 10
5.2233407023
 20
0.8331918078
 10
5.2237804829
 20
0.82747466
 10
5.2242202635
 20
0.8224611612
 10
5.2254516491
 20
0.8138414615
 10
5.2269469032
 20
0.8061892791
 10
5.2288819378
 20
0.7995925702
 10
5.2311687969
 20
0.7939633785
 10
5.2311687969
 20
0.7939633785
 10
5.2367100324
 20
0.7839363809
 10
5.2431308291
 20
0.7755805496
 10
5.2505191431
 20
0.7688958845
 10
5.2587870184
 20
0.7637944296
 10
5.2683742354
 20
0.7601002726
 10
5.2795446625
 20
0.7573736329
 10
5.2922982998
 20
0.7557904227
 10
5.3066351473
 20
0.755262686
 10
5.3066351473
 20
0.755262686
 10
5.32334681
 20
0.7557904227
 10
5.3386511747
 20
0.757461589
 10
5.3522843732
 20
0.7601002726
 10
5.3645102738
 20
0.7638823857
 10
5.3754168326
 20
0.7688079284
 10
5.385267918
 20
0.7749648568
 10
5.3939755738
 20
0.7822652147
 10
5.4017157123
 20
0.7907969582
 10
5.4017157123
 20
0.7907969582
 10
5.411039061
 20
0.8039903761
 10
5.418427375
 20
0.8190308726
 10
5.4216817514
 20
0.8280023967
 10
5.4250240839
 20
0.8388209994
 10
5.4282784603
 20
0.8515746367
 10
5.4316207929
 20
0.8662633086
 10
5.4316207929
 20
0.8662633086
 10
5.4529941299
 20
0.8653837474
 10
5.4529941299
 20
0.8653837474
 10
5.4529941299
 20
0.7383751111
 10
5.4529941299
 20
0.7383751111
 10
5.0870966734
 20
0.7383751111
 10
5.0870966734
 20
0.7383751111
 10
5.0870966734
 20
0.7549108615
 10
5.0870966734
 20
0.7549108615
 10
5.0968598027
 20
0.7556145105
 10
5.1053035901
 20
0.7565820278
 10
5.1121641674
 20
0.7579013696
 10
5.1177054029
 20
0.7594845798
 10
5.1267648832
 20
0.764058298
 10
5.134680934
 20
0.7705670508
 10
5.134680934
 20
0.7705670508
 10
5.138375091
 20
0.7749648568
 10
5.1414535552
 20
0.7801542678
 10
5.1440042826
 20
0.7858714156
 10
5.1458513611
 20
0.7923801684
 10
5.147258659
 20
0.800208263
 10
5.1482261763
 20
0.8099713923
 10
5.1488418692
 20
0.8216695561
 10
5.1490177814
 20
0.8353027546
 10
5.1490177814
 20
0.8353027546
 10
5.1490177814
 20
1.0523784572
 10
5.1490177814
 20
1.0523784572
 10
5.1488418692
 20
1.0659236996
 10
5.1482261763
 20
1.0776218634
 10
5.147258659
 20
1.0872970366
 10
5.1458513611
 20
1.0951251312
 10
5.1440042826
 20
1.101633884
 10
5.1414535552
 20
1.1074389879
 10
5.138375091
 20
1.1126283989
 10
5.1345929778
 20
1.1170262049
 10
5.1345929778
 20
1.1170262049
 10
5.1269407955
 20
1.1236229138
 10
5.1178813152
 20
1.1281086759
 10
5.1123400797
 20
1.1296918861
 10
5.1053915462
 20
1.1310112279
 10
5.0969477588
 20
1.1319787452
 10
5.0870966734
 20
1.1326823941
 10
5.0870966734
 20
1.1326823941
 10
5.0870966734
 20
1.1493061007
 10
5.0870966734
 20
1.1493061007
 10
5.4130620517
 20
1.1493061007
  0
LWPOLYLINE
  5
77
330
1F
100
AcDbEntity
  8
0
  6
Continuous
 62
     7
100
AcDbPolyline
 90
      114
 70
   128
 43
0.0
 10
5.554318428
 20
1.0858897386
 10
5.5543195794
 20
0.8353027546
 10
5.5543195794
 20
0.8353027546
 10
5.5544954916
 20
0.8210538633
 10
5.5551111844
 20
0.8088279627
 10
5.5561666579
 20
0.798713009
 10
5.5575739558
 20
0.7907090021
 10
5.5594210343
 20
0.7842002493
 10
5.5616199373
 20
0.7787469699
 10
5.5641706647
 20
0.7741732517
 10
5.5670732167
 20
0.7705670508
 10
5.5670732167
 20
0.7705670508
 10
5.5712071543
 20
0.7666090254
 10
5.575429048
 20
0.7632666929
 10
5.5794750295
 20
0.7607159654
 10
5.5836089671
 20
0.7588688869
 10
5.5887983782
 20
0.757461589
 10
5.5960107799
 20
0.7563181595
 10
5.6053341286
 20
0.7553506421
 10
5.6167684241
 20
0.7546469932
 10
5.6167684241
 20
0.7546469932
 10
5.6167684241
 20
0.7383751111
 10
5.6167684241
 20
0.7383751111
 10
5.4649561621
 20
0.7383751111
 10
5.4649561621
 20
0.7383751111
 10
5.4649561621
 20
0.7549108615
 10
5.4649561621
 20
0.7549108615
 10
5.4746313352
 20
0.7556145105
 10
5.4828992105
 20
0.7565820278
 10
5.4896718316
 20
0.7579013696
 10
5.495125111
 20
0.7594845798
 10
5.5040966352
 20
0.764058298
 10
5.5119247298
 20
0.7705670508
 10
5.5119247298
 20
0.7705670508
 10
5.5156188869
 20
0.7750528129
 10
5.518697351
 20
0.7802422239
 10
5.5211601224
 20
0.7860473278
 10
5.5230072009
 20
0.7924681245
 10
5.5244144988
 20
0.8002962191
 10
5.5253820161
 20
0.8099713923
 10
5.5259977089
 20
0.8216695561
 10
5.5261736212
 20
0.8353027546
 10
5.5261736212
 20
0.8353027546
 10
5.5261736212
 20
1.0526423255
 10
5.5261736212
 20
1.0526423255
 10
5.5259977089
 20
1.0660996118
 10
5.5253820161
 20
1.0776218634
 10
5.5244144988
 20
1.0872970366
 10
5.5230072009
 20
1.0950371751
 10
5.5211601224
 20
1.1015459279
 10
5.518697351
 20
1.1073510318
 10
5.5155309307
 20
1.1125404428
 10
5.5118367737
 20
1.1170262049
 10
5.5118367737
 20
1.1170262049
 10
5.5043605036
 20
1.1236229138
 10
5.4954769355
 20
1.1281086759
 10
5.4900236561
 20
1.1296918861
 10
5.4830751227
 20
1.1310112279
 10
5.4747192914
 20
1.1319787452
 10
5.4649561621
 20
1.1326823941
 10
5.4649561621
 20
1.1326823941
 10
5.4649561621
 20
1.1493061007
 10
5.4649561621
 20
1.1493061007
 10
5.5907334128
 20
1.1493061007
 10
5.5907334128
 20
1.1493061007
 10
5.8188915864
 20
0.8453297522
 10
5.8188915864
 20
0.8453297522
 10
5.8188915864
 20
1.0523784572
 10
5.8188915864
 20
1.0523784572
 10
5.8187156741
 20
1.0660116557
 10
5.8180999813
 20
1.0777098195
 10
5.8170445079
 20
1.0874729488
 10
5.8156372099
 20
1.0952130873
 10
5.8137901314
 20
1.101633884
 10
5.811239404
 20
1.1074389879
 10
5.8081609398
 20
1.1125404428
 10
5.8043788267
 20
1.1170262049
 10
5.8043788267
 20
1.1170262049
 10
5.796550732
 20
1.1235349577
 10
5.7873153395
 20
1.1280207198
 10
5.7816861479
 20
1.1296918861
 10
5.7747376144
 20
1.1310112279
 10
5.766293827
 20
1.1319787452
 10
5.7564427416
 20
1.1326823941
 10
5.7564427416
 20
1.1326823941
 10
5.7564427416
 20
1.1493061007
 10
5.7564427416
 20
1.1493061007
 10
5.9082550036
 20
1.1493061007
 10
5.9082550036
 20
1.1493061007
 10
5.9082550036
 20
1.1324185258
 10
5.9082550036
 20
1.1324185258
 10
5.9000750845
 20
1.1321546574
 10
5.8925108583
 20
1.1314510085
 10
5.8855623248
 20
1.1302196228
 10
5.8791415281
 20
1.1285484565
 10
5.8733364242
 20
1.1264375097
 10
5.8681470132
 20
1.1237988261
 10
5.863573295
 20
1.1206324058
 10
5.8595273135
 20
1.1170262049
 10
5.8595273135
 20
1.1170262049
 10
5.8567127177
 20
1.1135079601
 10
5.8542499463
 20
1.1089342419
 10
5.8520510434
 20
1.1033930064
 10
5.850291921
 20
1.0968842536
 10
5.8488846231
 20
1.0888802467
 10
5.8478291496
 20
1.0789412052
 10
5.8472134568
 20
1.0668912169
 10
5.8470375446
 20
1.0529061939
 10
5.8470375446
 20
1.0529061939
 10
5.8470375446
 20
0.7383751111
 10
5.8470375446
 20
0.7383751111
 10
5.8195952353
 20
0.7383751111
 10
5.8195952353
 20
0.7383751111
 10
5.5543195794
 20
1.0858897386
  0
LWPOLYLINE
  5
78
330
1F
100
AcDbEntity
  8
0
  6
Continuous
 62
     7
100
AcDbPolyline
 90
      209
 70
   128
 43
0.0
 10
6.3138186932
 20
1.1493061007
 10
6.3198896422
 20
1.0103354321
 10
6.3198896422
 20
1.0103354321
 10
6.2988681296
 20
1.0085763097
 10
6.2988681296
 20
1.0085763097
 10
6.2934148502
 20
1.025727753
 10
6.2876097464
 20
1.0416478106
 10
6.2815407741
 20
1.0563364825
 10
6.2752079335
 20
1.0697937688
 10
6.2686112246
 20
1.0821076255
 10
6.2616626911
 20
1.0931021404
 10
6.2544502894
 20
1.1029532258
 10
6.2468860631
 20
1.1115729255
 10
6.2390579685
 20
1.1191371518
 10
6.2307900933
 20
1.1256459046
 10
6.2221703936
 20
1.131099184
 10
6.2131988694
 20
1.1356729022
 10
6.2038755207
 20
1.139191147
 10
6.1941123915
 20
1.1416539183
 10
6.1839974378
 20
1.1431491723
 10
6.1735306596
 20
1.1436769091
 10
6.1735306596
 20
1.1436769091
 10
6.1585781193
 20
1.142885304
 10
6.1446810524
 20
1.1404225326
 10
6.131839459
 20
1.1363765512
 10
6.120053339
 20
1.1306594034
 10
6.1087949557
 20
1.1229192649
 10
6.0976245286
 20
1.1126283989
 10
6.0863661453
 20
1.0996988494
 10
6.0751957181
 20
1.0843065285
 10
6.0751957181
 20
1.0843065285
 10
6.0652566766
 20
1.0679466903
 10
6.056636977
 20
1.0508832031
 10
6.049336619
 20
1.0332040232
 10
6.043443559
 20
1.0148211942
 10
6.0387818847
 20
0.9957347163
 10
6.0354395522
 20
0.9759445895
 10
6.0335045176
 20
0.9554508137
 10
6.0328008686
 20
0.934341345
 10
6.0328008686
 20
0.934341345
 10
6.0334165614
 20
0.9139355253
 10
6.0354395522
 20
0.8942333546
 10
6.0386939286
 20
0.8752348328
 10
6.0432676468
 20
0.8568520039
 10
6.0490727507
 20
0.8395246484
 10
6.0557574158
 20
0.8235166346
 10
6.0634975543
 20
0.8089159188
 10
6.0722052101
 20
0.7956345448
 10
6.0722052101
 20
0.7956345448
 10
6.0818803832
 20
0.7834966003
 10
6.0919073808
 20
0.7730298221
 10
6.1022862029
 20
0.7641462541
 10
6.1131048056
 20
0.7569338523
 10
6.1242752327
 20
0.7513046607
 10
6.1357974844
 20
0.7472586792
 10
6.1476715605
 20
0.7447959078
 10
6.1599854172
 20
0.7440043027
 10
6.1599854172
 20
0.7440043027
 10
6.1705401515
 20
0.7445320395
 10
6.1806551052
 20
0.7462032057
 10
6.1905061906
 20
0.7490178016
 10
6.1999174954
 20
0.7528878708
 10
6.2088010634
 20
0.7578134135
 10
6.2168930264
 20
0.7635305612
 10
6.2240174721
 20
0.7700393141
 10
6.2303503127
 20
0.7774276281
 10
6.2303503127
 20
0.7774276281
 10
6.2374747583
 20
0.7887739675
 10
6.2426641694
 20
0.8012637364
 10
6.2456546774
 20
0.8146330666
 10
6.2467101509
 20
0.8291458263
 10
6.2467101509
 20
0.8291458263
 10
6.2458305897
 20
0.841459683
 10
6.2431919061
 20
0.8520144173
 10
6.2388820562
 20
0.860634117
 10
6.2327251279
 20
0.8674067382
 10
6.2288550586
 20
0.8701333779
 10
6.2241054282
 20
0.8725081931
 10
6.2186521488
 20
0.8745311839
 10
6.2123193082
 20
0.8762023501
 10
6.2052828186
 20
0.8774337358
 10
6.1973667679
 20
0.8784012531
 10
6.1886591121
 20
0.8789289898
 10
6.1791598512
 20
0.8791049021
 10
6.1791598512
 20
0.8791049021
 10
6.1791598512
 20
0.895992477
 10
6.1791598512
 20
0.895992477
 10
6.3818107502
 20
0.895992477
 10
6.3818107502
 20
0.895992477
 10
6.3818107502
 20
0.8800724194
 10
6.3818107502
 20
0.8800724194
 10
6.3740706117
 20
0.8792808143
 10
6.3672100344
 20
0.8785771653
 10
6.361053106
 20
0.8777855603
 10
6.3556877827
 20
0.8769939552
 10
6.3511140645
 20
0.876114394
 10
6.3473319514
 20
0.8753227889
 10
6.3443414433
 20
0.8744432277
 10
6.3421425403
 20
0.8735636665
 10
6.3387122517
 20
0.8712768074
 10
6.3355458314
 20
0.868022431
 10
6.3326432795
 20
0.8637125812
 10
6.330092552
 20
0.858435214
 10
6.330092552
 20
0.858435214
 10
6.3290370786
 20
0.8552687937
 10
6.3280695613
 20
0.8512228122
 10
6.3272779562
 20
0.8462972695
 10
6.3266622633
 20
0.8404921657
 10
6.3261345266
 20
0.8338075006
 10
6.3257827021
 20
0.8263312305
 10
6.3256067899
 20
0.817887443
 10
6.3255188338
 20
0.8085640943
 10
6.3255188338
 20
0.8085640943
 10
6.3255188338
 20
0.8025830782
 10
6.325694746
 20
0.7951068081
 10
6.3260465705
 20
0.7861352839
 10
6.3264863511
 20
0.7756685057
 10
6.3264863511
 20
0.7756685057
 10
6.3272779562
 20
0.7628269123
 10
6.3272779562
 20
0.7628269123
 10
6.3167232219
 20
0.7646739908
 10
6.3086312589
 20
0.7659053765
 10
6.3029141111
 20
0.7666969815
 10
6.2996597347
 20
0.7669608499
 10
6.2996597347
 20
0.7669608499
 10
6.298428349
 20
0.7666090254
 10
6.296229446
 20
0.7656415081
 10
6.293238938
 20
0.7638823857
 10
6.2892809126
 20
0.7615075705
 10
6.2892809126
 20
0.7615075705
 10
6.2760874947
 20
0.7539433442
 10
6.261574735
 20
0.747170723
 10
6.2456546774
 20
0.741277663
 10
6.2285032342
 20
0.7362641642
 10
6.2104722297
 20
0.7323061389
 10
6.1920014446
 20
0.7294035869
 10
6.1730029228
 20
0.7277324207
 10
6.1535646205
 20
0.7271167278
 10
6.1535646205
 20
0.7271167278
 10
6.1405471148
 20
0.7273805962
 10
6.1278814336
 20
0.7282601574
 10
6.1155675769
 20
0.7296674553
 10
6.1035175886
 20
0.731690446
 10
6.0917314686
 20
0.7342411735
 10
6.0802971731
 20
0.7373196377
 10
6.069214702
 20
0.7410137947
 10
6.0583960993
 20
0.7453236445
 10
6.0480172773
 20
0.7501612311
 10
6.0381661919
 20
0.7554385983
 10
6.0287548871
 20
0.7612437021
 10
6.0199592752
 20
0.7674885866
 10
6.0115154877
 20
0.7742612078
 10
6.0036873931
 20
0.7815615657
 10
5.9962990791
 20
0.7893017042
 10
5.9894385018
 20
0.7975695794
 10
5.9894385018
 20
0.7975695794
 10
5.980027197
 20
0.8110268657
 10
5.9718472779
 20
0.8255396254
 10
5.9648107884
 20
0.8412837707
 10
5.9589177284
 20
0.8580833895
 10
5.9543440102
 20
0.8757625695
 10
5.9510016776
 20
0.8940574424
 10
5.949066643
 20
0.9128800519
 10
5.948362994
 20
0.9323183543
 10
5.948362994
 20
0.9323183543
 10
5.9486268624
 20
0.9456876844
 10
5.9495943797
 20
0.9588811023
 10
5.9510896337
 20
0.9717226957
 10
5.9531126245
 20
0.9843883769
 10
5.9558392642
 20
0.9968781459
 10
5.9590936406
 20
1.0090160903
 10
5.9629637098
 20
1.0209781226
 10
5.9674494719
 20
1.0326762864
 10
5.9724629707
 20
1.0440226258
 10
5.9780042063
 20
1.0548412285
 10
5.9839852224
 20
1.0652200506
 10
5.9904939752
 20
1.075071136
 10
5.9974425086
 20
1.0843944846
 10
6.0049187788
 20
1.0931900966
 10
6.0129227856
 20
1.1015459279
 10
6.0213665731
 20
1.1093740225
 10
6.0213665731
 20
1.1093740225
 10
6.0362311573
 20
1.1209842303
 10
6.0520632587
 20
1.131099184
 10
6.0690387898
 20
1.1398947959
 10
6.0869818381
 20
1.1471951538
 10
6.1057164915
 20
1.1530882138
 10
6.1250668378
 20
1.1572221514
 10
6.1448569647
 20
1.1597728789
 10
6.1651748282
 20
1.160564484
 10
6.1651748282
 20
1.160564484
 10
6.1774886849
 20
1.1602126595
 10
6.189362761
 20
1.1593330983
 10
6.2007970566
 20
1.1577498882
 10
6.2118795276
 20
1.1555509852
 10
6.2336926452
 20
1.1493061007
 10
6.2554178067
 20
1.1404225326
 10
6.2554178067
 20
1.1404225326
 10
6.2725692499
 20
1.1321546574
 10
6.2725692499
 20
1.1321546574
 10
6.2768790998
 20
1.1305714473
 10
6.2796057395
 20
1.1300437106
 10
6.2796057395
 20
1.1300437106
 10
6.2832998965
 20
1.1312750962
 10
6.2867301852
 20
1.1348812971
 10
6.2900725177
 20
1.1408623132
 10
6.293238938
 20
1.1493061007
 10
6.293238938
 20
1.1493061007
 10
6.3138206699
 20
1.1493061007
  0
LWPOLYLINE
  5
79
330
1F
100
AcDbEntity
  8
0
  6
Continuous
 62
     7
100
AcDbPolyline
 90
       85
 70
   128
 43
0.0
 10
6.6006422043
 20
1.1493061007
 10
6.6006455751
 20
1.1329462625
 10
6.6006455751
 20
1.1329462625
 10
6.5895631041
 20
1.1322426135
 10
6.5804156677
 20
1.1312750962
 10
6.5733791781
 20
1.1301316667
 10
6.5683656793
 20
1.1287243688
 10
6.5644076539
 20
1.1268772903
 10
6.5603616724
 20
1.1243265628
 10
6.5562277348
 20
1.1210721864
 10
6.5520058411
 20
1.1170262049
 10
6.5520058411
 20
1.1170262049
 10
6.548223728
 20
1.11192475
 10
6.5450573077
 20
1.105328041
 10
6.5426824925
 20
1.0971481219
 10
6.5410113262
 20
1.0874729488
 10
6.5410113262
 20
1.0874729488
 10
6.5403076772
 20
1.0799966786
 10
6.5398678966
 20
1.0717288034
 10
6.5395160722
 20
1.0624934109
 10
6.539428116
 20
1.0523784572
 10
6.539428116
 20
1.0523784572
 10
6.539428116
 20
0.8353027546
 10
6.539428116
 20
0.8353027546
 10
6.5396040283
 20
0.8236925469
 10
6.5400438089
 20
0.8133137248
 10
6.5407474578
 20
0.8043422006
 10
6.5417149751
 20
0.7966900182
 10
6.5429463608
 20
0.7902692215
 10
6.5443536587
 20
0.7848159421
 10
6.5458489128
 20
0.7804181362
 10
6.547520079
 20
0.7769878475
 10
6.547520079
 20
0.7769878475
 10
6.5514781044
 20
0.771446612
 10
6.555612042
 20
0.7668728938
 10
6.5599218918
 20
0.7632666929
 10
6.5644076539
 20
0.7605400532
 10
6.5701248017
 20
0.7585170624
 10
6.5781288086
 20
0.7568458962
 10
6.5882437623
 20
0.7555265544
 10
6.6006455751
 20
0.7545590371
 10
6.6006455751
 20
0.7545590371
 10
6.6006455751
 20
0.7383751111
 10
6.6006455751
 20
0.7383751111
 10
6.399401974
 20
0.7383751111
 10
6.399401974
 20
0.7383751111
 10
6.399401974
 20
0.7549108615
 10
6.399401974
 20
0.7549108615
 10
6.4093410155
 20
0.7556145105
 10
6.4176968469
 20
0.7565820278
 10
6.4246453803
 20
0.7579013696
 10
6.4300107036
 20
0.7594845798
 10
6.4388063155
 20
0.764058298
 10
6.4463705418
 20
0.7705670508
 10
6.4463705418
 20
0.7705670508
 10
6.4501526549
 20
0.775140769
 10
6.4533190752
 20
0.7802422239
 10
6.4557818465
 20
0.7860473278
 10
6.457628925
 20
0.7923801684
 10
6.4589482668
 20
0.8001203069
 10
6.4599157842
 20
0.80979548
 10
6.4604435209
 20
0.8215816
 10
6.4606194331
 20
0.8353027546
 10
6.4606194331
 20
0.8353027546
 10
6.4606194331
 20
1.0523784572
 10
6.4606194331
 20
1.0523784572
 10
6.4604435209
 20
1.0660996118
 10
6.4599157842
 20
1.0777977757
 10
6.4589482668
 20
1.0875609049
 10
6.457628925
 20
1.0952130873
 10
6.4557818465
 20
1.101633884
 10
6.4533190752
 20
1.1074389879
 10
6.4501526549
 20
1.1125404428
 10
6.4463705418
 20
1.1170262049
 10
6.4463705418
 20
1.1170262049
 10
6.4387183594
 20
1.1236229138
 10
6.4297468352
 20
1.1281086759
 10
6.4242935558
 20
1.1296918861
 10
6.4173450224
 20
1.1310112279
 10
6.4090771472
 20
1.1319787452
 10
6.399401974
 20
1.1326823941
 10
6.399401974
 20
1.1326823941
 10
6.399401974
 20
1.1493061007
 10
6.399401974
 20
1.1493061007
 10
6.6006455751
 20
1.1493061007
  0
LWPOLYLINE
  5
7A
330
1F
100
AcDbEntity
  8
0
  6
Continuous
 62
     7
100
AcDbPolyline
 90
      114
 70
   128
 43
0.0
 10
6.7083001137
 20
1.0858897386
 10
6.7083038652
 20
0.8353027546
 10
6.7083038652
 20
0.8353027546
 10
6.7084797774
 20
0.8210538633
 10
6.7090954703
 20
0.8088279627
 10
6.7101509437
 20
0.798713009
 10
6.7115582416
 20
0.7907090021
 10
6.7134053201
 20
0.7842002493
 10
6.7156042231
 20
0.7787469699
 10
6.7181549506
 20
0.7741732517
 10
6.7210575025
 20
0.7705670508
 10
6.7210575025
 20
0.7705670508
 10
6.7251914401
 20
0.7666090254
 10
6.7294133338
 20
0.7632666929
 10
6.7334593153
 20
0.7607159654
 10
6.7375932529
 20
0.7588688869
 10
6.742782664
 20
0.757461589
 10
6.7499950658
 20
0.7563181595
 10
6.7593184144
 20
0.7553506421
 10
6.7707527099
 20
0.7546469932
 10
6.7707527099
 20
0.7546469932
 10
6.7707527099
 20
0.7383751111
 10
6.7707527099
 20
0.7383751111
 10
6.6189404479
 20
0.7383751111
 10
6.6189404479
 20
0.7383751111
 10
6.6189404479
 20
0.7549108615
 10
6.6189404479
 20
0.7549108615
 10
6.6286156211
 20
0.7556145105
 10
6.6368834963
 20
0.7565820278
 10
6.6436561175
 20
0.7579013696
 10
6.6491093969
 20
0.7594845798
 10
6.658080921
 20
0.764058298
 10
6.6659090157
 20
0.7705670508
 10
6.6659090157
 20
0.7705670508
 10
6.6696031727
 20
0.7750528129
 10
6.6726816368
 20
0.7802422239
 10
6.6751444082
 20
0.7860473278
 10
6.6769914867
 20
0.7924681245
 10
6.6783987846
 20
0.8002962191
 10
6.6793663019
 20
0.8099713923
 10
6.6799819948
 20
0.8216695561
 10
6.680157907
 20
0.8353027546
 10
6.680157907
 20
0.8353027546
 10
6.680157907
 20
1.0526423255
 10
6.680157907
 20
1.0526423255
 10
6.6799819948
 20
1.0660996118
 10
6.6793663019
 20
1.0776218634
 10
6.6783987846
 20
1.0872970366
 10
6.6769914867
 20
1.0950371751
 10
6.6751444082
 20
1.1015459279
 10
6.6726816368
 20
1.1073510318
 10
6.6695152166
 20
1.1125404428
 10
6.6658210595
 20
1.1170262049
 10
6.6658210595
 20
1.1170262049
 10
6.6583447894
 20
1.1236229138
 10
6.6494612213
 20
1.1281086759
 10
6.6440079419
 20
1.1296918861
 10
6.6370594085
 20
1.1310112279
 10
6.6287035772
 20
1.1319787452
 10
6.6189404479
 20
1.1326823941
 10
6.6189404479
 20
1.1326823941
 10
6.6189404479
 20
1.1493061007
 10
6.6189404479
 20
1.1493061007
 10
6.7447176986
 20
1.1493061007
 10
6.7447176986
 20
1.1493061007
 10
6.9728758722
 20
0.8453297522
 10
6.9728758722
 20
0.8453297522
 10
6.9728758722
 20
1.0523784572
 10
6.9728758722
 20
1.0523784572
 10
6.9726999599
 20
1.0660116557
 10
6.9720842671
 20
1.0777098195
 10
6.9710287937
 20
1.0874729488
 10
6.9696214958
 20
1.0952130873
 10
6.9677744173
 20
1.101633884
 10
6.9652236898
 20
1.1074389879
 10
6.9621452256
 20
1.1125404428
 10
6.9583631125
 20
1.1170262049
 10
6.9583631125
 20
1.1170262049
 10
6.9505350179
 20
1.1235349577
 10
6.9412996253
 20
1.1280207198
 10
6.9356704337
 20
1.1296918861
 10
6.9287219003
 20
1.1310112279
 10
6.9202781128
 20
1.1319787452
 10
6.9104270274
 20
1.1326823941
 10
6.9104270274
 20
1.1326823941
 10
6.9104270274
 20
1.1493061007
 10
6.9104270274
 20
1.1493061007
 10
7.0622392894
 20
1.1493061007
 10
7.0622392894
 20
1.1493061007
 10
7.0622392894
 20
1.1324185258
 10
7.0622392894
 20
1.1324185258
 10
7.0540593703
 20
1.1321546574
 10
7.0464951441
 20
1.1314510085
 10
7.0395466106
 20
1.1302196228
 10
7.0331258139
 20
1.1285484565
 10
7.0273207101
 20
1.1264375097
 10
7.022131299
 20
1.1237988261
 10
7.0175575808
 20
1.1206324058
 10
7.0135115993
 20
1.1170262049
 10
7.0135115993
 20
1.1170262049
 10
7.0106970035
 20
1.1135079601
 10
7.0082342322
 20
1.1089342419
 10
7.0060353292
 20
1.1033930064
 10
7.0042762068
 20
1.0968842536
 10
7.0028689089
 20
1.0888802467
 10
7.0018134354
 20
1.0789412052
 10
7.0011977426
 20
1.0668912169
 10
7.0010218304
 20
1.0529061939
 10
7.0010218304
 20
1.0529061939
 10
7.0010218304
 20
0.7383751111
 10
7.0010218304
 20
0.7383751111
 10
6.9735795211
 20
0.7383751111
 10
6.9735795211
 20
0.7383751111
 10
6.7083038652
 20
1.0858897386
  0
LWPOLYLINE
  5
7B
330
1F
100
AcDbEntity
  8
0
  6
Continuous
 62
     7
100
AcDbPolyline
 90
      156
 70
   128
 43
0.0
 10
7.4170529842
 20
1.1493061007
 10
7.4232112032
 20
1.0431430646
 10
7.4232112032
 20
1.0431430646
 10
7.4013980856
 20
1.0423514596
 10
7.4013980856
 20
1.0423514596
 10
7.3989353143
 20
1.0560726142
 10
7.3960327623
 20
1.0681226025
 10
7.3926904298
 20
1.0784134685
 10
7.3888203606
 20
1.0870331682
 10
7.3842466424
 20
1.0945094383
 10
7.378793363
 20
1.101633884
 10
7.3724605224
 20
1.108230593
 10
7.3651601645
 20
1.1143875213
 10
7.3651601645
 20
1.1143875213
 10
7.3585634555
 20
1.1188732834
 10
7.3512630976
 20
1.1226553965
 10
7.3433470469
 20
1.1258218168
 10
7.334639391
 20
1.1281966321
 10
7.3249642179
 20
1.1300437106
 10
7.3137937908
 20
1.1313630523
 10
7.3011281096
 20
1.1321546574
 10
7.2870551305
 20
1.1324185258
 10
7.2870551305
 20
1.1324185258
 10
7.2314668631
 20
1.1324185258
 10
7.2314668631
 20
1.1324185258
 10
7.2261894959
 20
0.9635427766
 10
7.2261894959
 20
0.9635427766
 10
7.2330500732
 20
0.9635427766
 10
7.2330500732
 20
0.9635427766
 10
7.2455398421
 20
0.9637186889
 10
7.2562704887
 20
0.9643343817
 10
7.265329969
 20
0.965301899
 10
7.2725423708
 20
0.9666212408
 10
7.278611343
 20
0.9684683193
 10
7.2840646224
 20
0.9709310907
 10
7.2888142529
 20
0.9738336426
 10
7.2929481905
 20
0.9773518874
 10
7.2929481905
 20
0.9773518874
 10
7.2995448994
 20
0.9854438504
 10
7.3042065738
 20
0.9949431112
 10
7.3060536523
 20
1.0011000396
 10
7.3079007308
 20
1.0091040465
 10
7.309571897
 20
1.0191310441
 10
7.3112430633
 20
1.0310930763
 10
7.3112430633
 20
1.0310930763
 10
7.333144137
 20
1.0302135151
 10
7.333144137
 20
1.0302135151
 10
7.333144137
 20
0.8678465188
 10
7.333144137
 20
0.8678465188
 10
7.3112430633
 20
0.8678465188
 10
7.3112430633
 20
0.8678465188
 10
7.3094839409
 20
0.8805122
 10
7.3075489063
 20
0.8914187588
 10
7.3053500033
 20
0.9005661952
 10
7.3029751881
 20
0.9079545092
 10
7.3002485484
 20
0.9141993937
 10
7.2970821281
 20
0.9200044976
 10
7.2933879711
 20
0.9251939086
 10
7.2892540335
 20
0.929943539
 10
7.2892540335
 20
0.929943539
 10
7.2848562275
 20
0.9339015644
 10
7.2797547726
 20
0.9373318531
 10
7.2739496687
 20
0.9401464489
 10
7.2674409159
 20
0.9425212641
 10
7.260140558
 20
0.9443683426
 10
7.2518726827
 20
0.9455997283
 10
7.2425493341
 20
0.9463913334
 10
7.2323464242
 20
0.9466552017
 10
7.2323464242
 20
0.9466552017
 10
7.2261894959
 20
0.9466552017
 10
7.2261894959
 20
0.9466552017
 10
7.2261894959
 20
0.8832388397
 10
7.2261894959
 20
0.8832388397
 10
7.2261894959
 20
0.8730359298
 10
7.226277452
 20
0.8635366689
 10
7.2264533642
 20
0.8548290131
 10
7.2267172326
 20
0.8468250063
 10
7.226981101
 20
0.8396126045
 10
7.2273329254
 20
0.8331918078
 10
7.227772706
 20
0.82747466
 10
7.2282124866
 20
0.8224611612
 10
7.2294438723
 20
0.8138414615
 10
7.2309391263
 20
0.8061892791
 10
7.232874161
 20
0.7995925702
 10
7.2351610201
 20
0.7939633785
 10
7.2351610201
 20
0.7939633785
 10
7.2407022556
 20
0.7839363809
 10
7.2471230523
 20
0.7755805496
 10
7.2545113663
 20
0.7688958845
 10
7.2627792415
 20
0.7637944296
 10
7.2723664585
 20
0.7601002726
 10
7.2835368857
 20
0.7573736329
 10
7.296290523
 20
0.7557904227
 10
7.3106273705
 20
0.755262686
 10
7.3106273705
 20
0.755262686
 10
7.3273390331
 20
0.7557904227
 10
7.3426433979
 20
0.757461589
 10
7.3562765964
 20
0.7601002726
 10
7.368502497
 20
0.7638823857
 10
7.3794090558
 20
0.7688079284
 10
7.3892601412
 20
0.7749648568
 10
7.397967797
 20
0.7822652147
 10
7.4057079355
 20
0.7907969582
 10
7.4057079355
 20
0.7907969582
 10
7.4150312841
 20
0.8039903761
 10
7.4224195982
 20
0.8190308726
 10
7.4256739746
 20
0.8280023967
 10
7.4290163071
 20
0.8388209994
 10
7.4322706835
 20
0.8515746367
 10
7.4356130161
 20
0.8662633086
 10
7.4356130161
 20
0.8662633086
 10
7.4569863531
 20
0.8653837474
 10
7.4569863531
 20
0.8653837474
 10
7.4569863531
 20
0.7383751111
 10
7.4569863531
 20
0.7383751111
 10
7.0910888966
 20
0.7383751111
 10
7.0910888966
 20
0.7383751111
 10
7.0910888966
 20
0.7549108615
 10
7.0910888966
 20
0.7549108615
 10
7.1008520258
 20
0.7556145105
 10
7.1092958133
 20
0.7565820278
 10
7.1161563906
 20
0.7579013696
 10
7.1216976261
 20
0.7594845798
 10
7.1307571064
 20
0.764058298
 10
7.1386731571
 20
0.7705670508
 10
7.1386731571
 20
0.7705670508
 10
7.1423673142
 20
0.7749648568
 10
7.1454457783
 20
0.7801542678
 10
7.1479965058
 20
0.7858714156
 10
7.1498435843
 20
0.7923801684
 10
7.1512508822
 20
0.800208263
 10
7.1522183995
 20
0.8099713923
 10
7.1528340924
 20
0.8216695561
 10
7.1530100046
 20
0.8353027546
 10
7.1530100046
 20
0.8353027546
 10
7.1530100046
 20
1.0523784572
 10
7.1530100046
 20
1.0523784572
 10
7.1528340924
 20
1.0659236996
 10
7.1522183995
 20
1.0776218634
 10
7.1512508822
 20
1.0872970366
 10
7.1498435843
 20
1.0951251312
 10
7.1479965058
 20
1.101633884
 10
7.1454457783
 20
1.1074389879
 10
7.1423673142
 20
1.1126283989
 10
7.138585201
 20
1.1170262049
 10
7.138585201
 20
1.1170262049
 10
7.1309330186
 20
1.1236229138
 10
7.1218735383
 20
1.1281086759
 10
7.1163323028
 20
1.1296918861
 10
7.1093837694
 20
1.1310112279
 10
7.1009399819
 20
1.1319787452
 10
7.0910888966
 20
1.1326823941
 10
7.0910888966
 20
1.1326823941
 10
7.0910888966
 20
1.1493061007
 10
7.0910888966
 20
1.1493061007
 10
7.4170542749
 20
1.1493061007
  0
LWPOLYLINE
  5
7C
330
1F
100
AcDbEntity
  8
0
  6
Continuous
 62
     7
100
AcDbPolyline
 90
      156
 70
   128
 43
0.0
 10
7.799834013
 20
1.1493061007
 10
7.8059962346
 20
1.0431430646
 10
7.8059962346
 20
1.0431430646
 10
7.784183117
 20
1.0423514596
 10
7.784183117
 20
1.0423514596
 10
7.7817203457
 20
1.0560726142
 10
7.7788177937
 20
1.0681226025
 10
7.7754754612
 20
1.0784134685
 10
7.771605392
 20
1.0870331682
 10
7.7670316737
 20
1.0945094383
 10
7.7615783943
 20
1.101633884
 10
7.7552455538
 20
1.108230593
 10
7.7479451959
 20
1.1143875213
 10
7.7479451959
 20
1.1143875213
 10
7.7413484869
 20
1.1188732834
 10
7.734048129
 20
1.1226553965
 10
7.7261320783
 20
1.1258218168
 10
7.7174244224
 20
1.1281966321
 10
7.7077492493
 20
1.1300437106
 10
7.6965788222
 20
1.1313630523
 10
7.683913141
 20
1.1321546574
 10
7.6698401619
 20
1.1324185258
 10
7.6698401619
 20
1.1324185258
 10
7.6142518944
 20
1.1324185258
 10
7.6142518944
 20
1.1324185258
 10
7.6089745273
 20
0.9635427766
 10
7.6089745273
 20
0.9635427766
 10
7.6158351046
 20
0.9635427766
 10
7.6158351046
 20
0.9635427766
 10
7.6283248735
 20
0.9637186889
 10
7.6390555201
 20
0.9643343817
 10
7.6481150004
 20
0.965301899
 10
7.6553274022
 20
0.9666212408
 10
7.6613963744
 20
0.9684683193
 10
7.6668496538
 20
0.9709310907
 10
7.6715992843
 20
0.9738336426
 10
7.6757332219
 20
0.9773518874
 10
7.6757332219
 20
0.9773518874
 10
7.6823299308
 20
0.9854438504
 10
7.6869916051
 20
0.9949431112
 10
7.6888386837
 20
1.0011000396
 10
7.6906857622
 20
1.0091040465
 10
7.6923569284
 20
1.0191310441
 10
7.6940280947
 20
1.0310930763
 10
7.6940280947
 20
1.0310930763
 10
7.7159291684
 20
1.0302135151
 10
7.7159291684
 20
1.0302135151
 10
7.7159291684
 20
0.8678465188
 10
7.7159291684
 20
0.8678465188
 10
7.6940280947
 20
0.8678465188
 10
7.6940280947
 20
0.8678465188
 10
7.6922689723
 20
0.8805122
 10
7.6903339377
 20
0.8914187588
 10
7.6881350347
 20
0.9005661952
 10
7.6857602195
 20
0.9079545092
 10
7.6830335798
 20
0.9141993937
 10
7.6798671595
 20
0.9200044976
 10
7.6761730025
 20
0.9251939086
 10
7.6720390649
 20
0.929943539
 10
7.6720390649
 20
0.929943539
 10
7.6676412589
 20
0.9339015644
 10
7.662539804
 20
0.9373318531
 10
7.6567347001
 20
0.9401464489
 10
7.6502259473
 20
0.9425212641
 10
7.6429255894
 20
0.9443683426
 10
7.6346577141
 20
0.9455997283
 10
7.6253343655
 20
0.9463913334
 10
7.6151314556
 20
0.9466552017
 10
7.6151314556
 20
0.9466552017
 10
7.6089745273
 20
0.9466552017
 10
7.6089745273
 20
0.9466552017
 10
7.6089745273
 20
0.8832388397
 10
7.6089745273
 20
0.8832388397
 10
7.6089745273
 20
0.8730359298
 10
7.6090624834
 20
0.8635366689
 10
7.6092383956
 20
0.8548290131
 10
7.609502264
 20
0.8468250063
 10
7.6097661324
 20
0.8396126045
 10
7.6101179568
 20
0.8331918078
 10
7.6105577374
 20
0.82747466
 10
7.610997518
 20
0.8224611612
 10
7.6122289037
 20
0.8138414615
 10
7.6137241577
 20
0.8061892791
 10
7.6156591924
 20
0.7995925702
 10
7.6179460515
 20
0.7939633785
 10
7.6179460515
 20
0.7939633785
 10
7.623487287
 20
0.7839363809
 10
7.6299080837
 20
0.7755805496
 10
7.6372963977
 20
0.7688958845
 10
7.6455642729
 20
0.7637944296
 10
7.6551514899
 20
0.7601002726
 10
7.6663219171
 20
0.7573736329
 10
7.6790755544
 20
0.7557904227
 10
7.6934124019
 20
0.755262686
 10
7.6934124019
 20
0.755262686
 10
7.7101240645
 20
0.7557904227
 10
7.7254284293
 20
0.757461589
 10
7.7390616278
 20
0.7601002726
 10
7.7512875284
 20
0.7638823857
 10
7.7621940872
 20
0.7688079284
 10
7.7720451726
 20
0.7749648568
 10
7.7807528284
 20
0.7822652147
 10
7.7884929669
 20
0.7907969582
 10
7.7884929669
 20
0.7907969582
 10
7.7978163155
 20
0.8039903761
 10
7.8052046295
 20
0.8190308726
 10
7.808459006
 20
0.8280023967
 10
7.8118013385
 20
0.8388209994
 10
7.8150557149
 20
0.8515746367
 10
7.8183980474
 20
0.8662633086
 10
7.8183980474
 20
0.8662633086
 10
7.8397713844
 20
0.8653837474
 10
7.8397713844
 20
0.8653837474
 10
7.8397713844
 20
0.7383751111
 10
7.8397713844
 20
0.7383751111
 10
7.473873928
 20
0.7383751111
 10
7.473873928
 20
0.7383751111
 10
7.473873928
 20
0.7549108615
 10
7.473873928
 20
0.7549108615
 10
7.4836370572
 20
0.7556145105
 10
7.4920808447
 20
0.7565820278
 10
7.498941422
 20
0.7579013696
 10
7.5044826575
 20
0.7594845798
 10
7.5135421378
 20
0.764058298
 10
7.5214581885
 20
0.7705670508
 10
7.5214581885
 20
0.7705670508
 10
7.5251523455
 20
0.7749648568
 10
7.5282308097
 20
0.7801542678
 10
7.5307815372
 20
0.7858714156
 10
7.5326286157
 20
0.7923801684
 10
7.5340359136
 20
0.800208263
 10
7.5350034309
 20
0.8099713923
 10
7.5356191237
 20
0.8216695561
 10
7.535795036
 20
0.8353027546
 10
7.535795036
 20
0.8353027546
 10
7.535795036
 20
1.0523784572
 10
7.535795036
 20
1.0523784572
 10
7.5356191237
 20
1.0659236996
 10
7.5350034309
 20
1.0776218634
 10
7.5340359136
 20
1.0872970366
 10
7.5326286157
 20
1.0951251312
 10
7.5307815372
 20
1.101633884
 10
7.5282308097
 20
1.1074389879
 10
7.5251523455
 20
1.1126283989
 10
7.5213702324
 20
1.1170262049
 10
7.5213702324
 20
1.1170262049
 10
7.51371805
 20
1.1236229138
 10
7.5046585697
 20
1.1281086759
 10
7.4991173342
 20
1.1296918861
 10
7.4921688008
 20
1.1310112279
 10
7.4837250133
 20
1.1319787452
 10
7.473873928
 20
1.1326823941
 10
7.473873928
 20
1.1326823941
 10
7.473873928
 20
1.1493061007
 10
7.473873928
 20
1.1493061007
 10
7.7998393063
 20
1.1493061007
  0
LWPOLYLINE
  5
7D
330
1F
100
AcDbEntity
  8
0
  6
Continuous
 62
     7
100
AcDbPolyline
 90
      167
 70
   128
 43
0.0
 10
7.9917550087
 20
0.9353968184
 10
7.9973887503
 20
0.832664071
 10
7.9973887503
 20
0.832664071
 10
7.9975646626
 20
0.8199104337
 10
7.9981803554
 20
0.8087400066
 10
7.9992358288
 20
0.7992407457
 10
8.0006431267
 20
0.791324695
 10
8.0024902052
 20
0.784727986
 10
8.0046891082
 20
0.7791867505
 10
8.0072398357
 20
0.77443712
 10
8.0101423876
 20
0.770742963
 10
8.0101423876
 20
0.770742963
 10
8.0142763252
 20
0.7666969815
 10
8.0184102628
 20
0.763354649
 10
8.0223682882
 20
0.7608039215
 10
8.0263263136
 20
0.7588688869
 10
8.0313398124
 20
0.757461589
 10
8.038464258
 20
0.7563181595
 10
8.0477876067
 20
0.7553506421
 10
8.0591339461
 20
0.7546469932
 10
8.0591339461
 20
0.7546469932
 10
8.0591339461
 20
0.7383751111
 10
8.0591339461
 20
0.7383751111
 10
7.8573626083
 20
0.7383751111
 10
7.8573626083
 20
0.7383751111
 10
7.8573626083
 20
0.7549108615
 10
7.8573626083
 20
0.7549108615
 10
7.8673016498
 20
0.7556145105
 10
7.8756574811
 20
0.7565820278
 10
7.8826060146
 20
0.7579013696
 10
7.8879713378
 20
0.7594845798
 10
7.8967669498
 20
0.764058298
 10
7.904331176
 20
0.7705670508
 10
7.904331176
 20
0.7705670508
 10
7.9081132892
 20
0.775140769
 10
7.9112797095
 20
0.7802422239
 10
7.9137424808
 20
0.7860473278
 10
7.9155895593
 20
0.7923801684
 10
7.9169089011
 20
0.8001203069
 10
7.9178764184
 20
0.80979548
 10
7.9184041551
 20
0.8215816
 10
7.9185800674
 20
0.8353027546
 10
7.9185800674
 20
0.8353027546
 10
7.9185800674
 20
1.0523784572
 10
7.9185800674
 20
1.0523784572
 10
7.9184041551
 20
1.0660996118
 10
7.9178764184
 20
1.0777977757
 10
7.9169089011
 20
1.0875609049
 10
7.9155895593
 20
1.0952130873
 10
7.9137424808
 20
1.101633884
 10
7.9112797095
 20
1.1074389879
 10
7.9081132892
 20
1.1125404428
 10
7.904331176
 20
1.1170262049
 10
7.904331176
 20
1.1170262049
 10
7.8966789937
 20
1.1236229138
 10
7.8877074695
 20
1.1281086759
 10
7.8822541901
 20
1.1296918861
 10
7.8753056567
 20
1.1310112279
 10
7.8670377814
 20
1.1319787452
 10
7.8573626083
 20
1.1326823941
 10
7.8573626083
 20
1.1326823941
 10
7.8573626083
 20
1.1493061007
 10
7.8573626083
 20
1.1493061007
 10
8.0040734154
 20
1.1493061007
 10
8.0040734154
 20
1.1493061007
 10
8.012605159
 20
1.1493061007
 10
8.0203452975
 20
1.1492181446
 10
8.027381787
 20
1.1492181446
 10
8.0336266715
 20
1.1492181446
 10
8.0390799509
 20
1.1491301885
 10
8.0438295813
 20
1.1490422323
 10
8.0477876067
 20
1.1490422323
 10
8.0510419831
 20
1.1489542762
 10
8.0510419831
 20
1.1489542762
 10
8.0629160592
 20
1.1482506273
 10
8.0739985303
 20
1.1472831099
 10
8.0844653085
 20
1.1461396804
 10
8.0942284377
 20
1.1446444264
 10
8.1031999619
 20
1.1429732601
 10
8.1115557932
 20
1.1409502694
 10
8.1192079756
 20
1.1387513664
 10
8.126156509
 20
1.136288595
 10
8.126156509
 20
1.136288595
 10
8.1421645228
 20
1.1288123249
 10
8.1560615896
 20
1.1198408007
 10
8.1677597535
 20
1.1095499348
 10
8.1773469705
 20
1.0978517709
 10
8.1848232406
 20
1.0850981336
 10
8.1901885639
 20
1.0716408473
 10
8.1933549842
 20
1.057391956
 10
8.1944104576
 20
1.0424394157
 10
8.1944104576
 20
1.0424394157
 10
8.1937947648
 20
1.0310930763
 10
8.1920356424
 20
1.0201865175
 10
8.1890451344
 20
1.0097197393
 10
8.1848232406
 20
0.9997806978
 10
8.1794579174
 20
0.990369393
 10
8.1728612084
 20
0.9813978689
 10
8.1650331138
 20
0.9729540814
 10
8.1560615896
 20
0.9649500745
 10
8.1560615896
 20
0.9649500745
 10
8.1454188992
 20
0.9580894972
 10
8.1323134374
 20
0.9517566566
 10
8.1180645461
 20
0.9469190701
 10
8.1037276986
 20
0.9442803865
 10
8.1037276986
 20
0.9442803865
 10
8.1096207586
 20
0.9426971764
 10
8.1146342574
 20
0.9404982734
 10
8.1189441073
 20
0.9377716337
 10
8.122462352
 20
0.9344293011
 10
8.122462352
 20
0.9344293011
 10
8.1296747538
 20
0.9253698208
 10
8.1352159893
 20
0.91587056
 10
8.1378546729
 20
0.9102413683
 10
8.1410210932
 20
0.9027650982
 10
8.1448032063
 20
0.8936176618
 10
8.1490251001
 20
0.882711103
 10
8.1490251001
 20
0.882711103
 10
8.1553579407
 20
0.8697815534
 10
8.1612510007
 20
0.8577315651
 10
8.1667042801
 20
0.8465611379
 10
8.1718936911
 20
0.8362702719
 10
8.1765553654
 20
0.8268589672
 10
8.1809531714
 20
0.8183272236
 10
8.1849111968
 20
0.8107629973
 10
8.1884294415
 20
0.8039903761
 10
8.1947622821
 20
0.7924681245
 10
8.2003035176
 20
0.7830568197
 10
8.204965192
 20
0.7756685057
 10
8.2087473051
 20
0.7704790947
 10
8.2087473051
 20
0.7704790947
 10
8.2125294182
 20
0.7659933326
 10
8.2157837947
 20
0.7624750878
 10
8.2186863466
 20
0.7599243604
 10
8.2211491179
 20
0.7582531941
 10
8.2243155382
 20
0.7571097645
 10
8.2291531248
 20
0.7561422472
 10
8.2358377899
 20
0.7550867738
 10
8.2441936212
 20
0.7542072126
 10
8.2441936212
 20
0.7542072126
 10
8.2441936212
 20
0.7383751111
 10
8.2441936212
 20
0.7383751111
 10
8.1344243843
 20
0.7383751111
 10
8.1344243843
 20
0.7383751111
 10
8.1303784028
 20
0.747170723
 10
8.1272999386
 20
0.7541192565
 10
8.1249251234
 20
0.7591327553
 10
8.1235178255
 20
0.7622991756
 10
8.1235178255
 20
0.7622991756
 10
8.1028481374
 20
0.8092677433
 10
8.1028481374
 20
0.8092677433
 10
8.093700701
 20
0.8294976508
 10
8.0843773523
 20
0.8484961725
 10
8.0750540037
 20
0.8664392209
 10
8.0656426989
 20
0.8832388397
 10
8.0656426989
 20
0.8832388397
 10
8.0565832186
 20
0.8975756871
 10
8.0480514751
 20
0.9093618071
 10
8.0397835998
 20
0.9186851558
 10
8.0320434613
 20
0.9255457331
 10
8.0320434613
 20
0.9255457331
 10
8.0244792351
 20
0.9301194513
 10
8.016299316
 20
0.9331099593
 10
8.0068000551
 20
0.9348690817
 10
7.9951898473
 20
0.9353968184
 10
7.9951898473
 20
0.9353968184
 10
7.9917595587
 20
0.9353968184
  0
LWPOLYLINE
  5
7E
330
1F
100
AcDbEntity
  8
0
  6
Continuous
 62
     7
100
AcDbPolyline
 90
       46
 70
   128
 43
0.0
 10
7.9917550087
 20
0.9522843934
 10
7.992727076
 20
0.9522843934
 10
7.992727076
 20
0.9522843934
 10
8.0021383808
 20
0.9523723495
 10
8.0108460366
 20
0.9525482617
 10
8.0188500434
 20
0.9528121301
 10
8.0261504013
 20
0.9532519107
 10
8.0326591542
 20
0.9537796474
 10
8.038464258
 20
0.9543953402
 10
8.043565713
 20
0.9551869453
 10
8.0479635189
 20
0.9560665065
 10
8.0559675258
 20
0.9585292778
 10
8.0636197082
 20
0.9618716104
 10
8.0710959783
 20
0.9662694163
 10
8.078220424
 20
0.9716347396
 10
8.078220424
 20
0.9716347396
 10
8.0856966941
 20
0.9786712292
 10
8.0921174909
 20
0.9860595432
 10
8.0975707702
 20
0.9937996817
 10
8.1020565323
 20
1.0020675569
 10
8.105486821
 20
1.0106872566
 10
8.1079495923
 20
1.0196587808
 10
8.1094448464
 20
1.0290700855
 10
8.1099725831
 20
1.0389211709
 10
8.1099725831
 20
1.0389211709
 10
8.1093568902
 20
1.0494759052
 10
8.107685724
 20
1.0596788151
 10
8.1046952159
 20
1.0696178566
 10
8.1006492344
 20
1.0792050736
 10
8.0956357356
 20
1.0882645539
 10
8.0896547195
 20
1.096444473
 10
8.0828820983
 20
1.1037448309
 10
8.0752299159
 20
1.1102535837
 10
8.0752299159
 20
1.1102535837
 10
8.0687211631
 20
1.1143875213
 10
8.0615087613
 20
1.1179057661
 10
8.0535927106
 20
1.120808318
 10
8.0449730109
 20
1.123007221
 10
8.0350339694
 20
1.1246783873
 10
8.0232478494
 20
1.1258218168
 10
8.0094387387
 20
1.1265254658
 10
7.9936945933
 20
1.1267893341
 10
7.9936945933
 20
1.1267893341
 10
7.9917595587
 20
1.1267893341
 10
7.9917595587
 20
1.1267893341
 10
7.9917595587
 20
0.9522843934
  0
LWPOLYLINE
  5
7F
330
1F
100
AcDbEntity
  8
0
  6
Continuous
 62
     7
100
AcDbPolyline
 90
       85
 70
   128
 43
0.0
 10
8.4582746029
 20
1.1493061007
 10
8.4582788157
 20
1.1329462625
 10
8.4582788157
 20
1.1329462625
 10
8.4471963446
 20
1.1322426135
 10
8.4380489082
 20
1.1312750962
 10
8.4310124187
 20
1.1301316667
 10
8.4259989199
 20
1.1287243688
 10
8.4220408945
 20
1.1268772903
 10
8.417994913
 20
1.1243265628
 10
8.4138609754
 20
1.1210721864
 10
8.4096390817
 20
1.1170262049
 10
8.4096390817
 20
1.1170262049
 10
8.4058569686
 20
1.11192475
 10
8.4026905483
 20
1.105328041
 10
8.400315733
 20
1.0971481219
 10
8.3986445668
 20
1.0874729488
 10
8.3986445668
 20
1.0874729488
 10
8.3979409178
 20
1.0799966786
 10
8.3975011372
 20
1.0717288034
 10
8.3971493127
 20
1.0624934109
 10
8.3970613566
 20
1.0523784572
 10
8.3970613566
 20
1.0523784572
 10
8.3970613566
 20
0.8353027546
 10
8.3970613566
 20
0.8353027546
 10
8.3972372689
 20
0.8236925469
 10
8.3976770495
 20
0.8133137248
 10
8.3983806984
 20
0.8043422006
 10
8.3993482157
 20
0.7966900182
 10
8.4005796014
 20
0.7902692215
 10
8.4019868993
 20
0.7848159421
 10
8.4034821533
 20
0.7804181362
 10
8.4051533196
 20
0.7769878475
 10
8.4051533196
 20
0.7769878475
 10
8.409111345
 20
0.771446612
 10
8.4132452826
 20
0.7668728938
 10
8.4175551324
 20
0.7632666929
 10
8.4220408945
 20
0.7605400532
 10
8.4277580423
 20
0.7585170624
 10
8.4357620491
 20
0.7568458962
 10
8.4458770029
 20
0.7555265544
 10
8.4582788157
 20
0.7545590371
 10
8.4582788157
 20
0.7545590371
 10
8.4582788157
 20
0.7383751111
 10
8.4582788157
 20
0.7383751111
 10
8.2570352146
 20
0.7383751111
 10
8.2570352146
 20
0.7383751111
 10
8.2570352146
 20
0.7549108615
 10
8.2570352146
 20
0.7549108615
 10
8.2669742561
 20
0.7556145105
 10
8.2753300874
 20
0.7565820278
 10
8.2822786209
 20
0.7579013696
 10
8.2876439442
 20
0.7594845798
 10
8.2964395561
 20
0.764058298
 10
8.3040037824
 20
0.7705670508
 10
8.3040037824
 20
0.7705670508
 10
8.3077858955
 20
0.775140769
 10
8.3109523158
 20
0.7802422239
 10
8.3134150871
 20
0.7860473278
 10
8.3152621656
 20
0.7923801684
 10
8.3165815074
 20
0.8001203069
 10
8.3175490247
 20
0.80979548
 10
8.3180767614
 20
0.8215816
 10
8.3182526737
 20
0.8353027546
 10
8.3182526737
 20
0.8353027546
 10
8.3182526737
 20
1.0523784572
 10
8.3182526737
 20
1.0523784572
 10
8.3180767614
 20
1.0660996118
 10
8.3175490247
 20
1.0777977757
 10
8.3165815074
 20
1.0875609049
 10
8.3152621656
 20
1.0952130873
 10
8.3134150871
 20
1.101633884
 10
8.3109523158
 20
1.1074389879
 10
8.3077858955
 20
1.1125404428
 10
8.3040037824
 20
1.1170262049
 10
8.3040037824
 20
1.1170262049
 10
8.2963516
 20
1.1236229138
 10
8.2873800758
 20
1.1281086759
 10
8.2819267964
 20
1.1296918861
 10
8.274978263
 20
1.1310112279
 10
8.2667103878
 20
1.1319787452
 10
8.2570352146
 20
1.1326823941
 10
8.2570352146
 20
1.1326823941
 10
8.2570352146
 20
1.1493061007
 10
8.2570352146
 20
1.1493061007
 10
8.4582788157
 20
1.1493061007
  0
LWPOLYLINE
  5
80
330
1F
100
AcDbEntity
  8
0
  6
Continuous
 62
     7
100
AcDbPolyline
 90
      114
 70
   128
 43
0.0
 10
8.5659325123
 20
1.0858897386
 10
8.5659371058
 20
0.8353027546
 10
8.5659371058
 20
0.8353027546
 10
8.566113018
 20
0.8210538633
 10
8.5667287108
 20
0.8088279627
 10
8.5677841843
 20
0.798713009
 10
8.5691914822
 20
0.7907090021
 10
8.5710385607
 20
0.7842002493
 10
8.5732374637
 20
0.7787469699
 10
8.5757881911
 20
0.7741732517
 10
8.5786907431
 20
0.7705670508
 10
8.5786907431
 20
0.7705670508
 10
8.5828246807
 20
0.7666090254
 10
8.5870465744
 20
0.7632666929
 10
8.5910925559
 20
0.7607159654
 10
8.5952264935
 20
0.7588688869
 10
8.6004159045
 20
0.757461589
 10
8.6076283063
 20
0.7563181595
 10
8.616951655
 20
0.7553506421
 10
8.6283859505
 20
0.7546469932
 10
8.6283859505
 20
0.7546469932
 10
8.6283859505
 20
0.7383751111
 10
8.6283859505
 20
0.7383751111
 10
8.4765736885
 20
0.7383751111
 10
8.4765736885
 20
0.7383751111
 10
8.4765736885
 20
0.7549108615
 10
8.4765736885
 20
0.7549108615
 10
8.4862488616
 20
0.7556145105
 10
8.4945167369
 20
0.7565820278
 10
8.501289358
 20
0.7579013696
 10
8.5067426374
 20
0.7594845798
 10
8.5157141616
 20
0.764058298
 10
8.5235422562
 20
0.7705670508
 10
8.5235422562
 20
0.7705670508
 10
8.5272364133
 20
0.7750528129
 10
8.5303148774
 20
0.7802422239
 10
8.5327776488
 20
0.7860473278
 10
8.5346247273
 20
0.7924681245
 10
8.5360320252
 20
0.8002962191
 10
8.5369995425
 20
0.8099713923
 10
8.5376152353
 20
0.8216695561
 10
8.5377911476
 20
0.8353027546
 10
8.5377911476
 20
0.8353027546
 10
8.5377911476
 20
1.0526423255
 10
8.5377911476
 20
1.0526423255
 10
8.5376152353
 20
1.0660996118
 10
8.5369995425
 20
1.0776218634
 10
8.5360320252
 20
1.0872970366
 10
8.5346247273
 20
1.0950371751
 10
8.5327776488
 20
1.1015459279
 10
8.5303148774
 20
1.1073510318
 10
8.5271484571
 20
1.1125404428
 10
8.5234543001
 20
1.1170262049
 10
8.5234543001
 20
1.1170262049
 10
8.51597803
 20
1.1236229138
 10
8.5070944619
 20
1.1281086759
 10
8.5016411825
 20
1.1296918861
 10
8.4946926491
 20
1.1310112279
 10
8.4863368178
 20
1.1319787452
 10
8.4765736885
 20
1.1326823941
 10
8.4765736885
 20
1.1326823941
 10
8.4765736885
 20
1.1493061007
 10
8.4765736885
 20
1.1493061007
 10
8.6023509392
 20
1.1493061007
 10
8.6023509392
 20
1.1493061007
 10
8.8305091128
 20
0.8453297522
 10
8.8305091128
 20
0.8453297522
 10
8.8305091128
 20
1.0523784572
 10
8.8305091128
 20
1.0523784572
 10
8.8303332005
 20
1.0660116557
 10
8.8297175077
 20
1.0777098195
 10
8.8286620343
 20
1.0874729488
 10
8.8272547363
 20
1.0952130873
 10
8.8254076578
 20
1.101633884
 10
8.8228569304
 20
1.1074389879
 10
8.8197784662
 20
1.1125404428
 10
8.8159963531
 20
1.1170262049
 10
8.8159963531
 20
1.1170262049
 10
8.8081682584
 20
1.1235349577
 10
8.7989328659
 20
1.1280207198
 10
8.7933036743
 20
1.1296918861
 10
8.7863551408
 20
1.1310112279
 10
8.7779113534
 20
1.1319787452
 10
8.768060268
 20
1.1326823941
 10
8.768060268
 20
1.1326823941
 10
8.768060268
 20
1.1493061007
 10
8.768060268
 20
1.1493061007
 10
8.91987253
 20
1.1493061007
 10
8.91987253
 20
1.1493061007
 10
8.91987253
 20
1.1324185258
 10
8.91987253
 20
1.1324185258
 10
8.9116926109
 20
1.1321546574
 10
8.9041283847
 20
1.1314510085
 10
8.8971798512
 20
1.1302196228
 10
8.8907590545
 20
1.1285484565
 10
8.8849539506
 20
1.1264375097
 10
8.8797645396
 20
1.1237988261
 10
8.8751908214
 20
1.1206324058
 10
8.8711448399
 20
1.1170262049
 10
8.8711448399
 20
1.1170262049
 10
8.8683302441
 20
1.1135079601
 10
8.8658674727
 20
1.1089342419
 10
8.8636685698
 20
1.1033930064
 10
8.8619094474
 20
1.0968842536
 10
8.8605021495
 20
1.0888802467
 10
8.859446676
 20
1.0789412052
 10
8.8588309832
 20
1.0668912169
 10
8.8586550709
 20
1.0529061939
 10
8.8586550709
 20
1.0529061939
 10
8.8586550709
 20
0.7383751111
 10
8.8586550709
 20
0.7383751111
 10
8.8312127617
 20
0.7383751111
 10
8.8312127617
 20
0.7383751111
 10
8.5659371058
 20
1.0858897386
  0
LWPOLYLINE
  5
81
330
1F
100
AcDbEntity
  8
0
  6
Continuous
 62
     7
100
AcDbPolyline
 90
      209
 70
   128
 43
0.0
 10
9.3254327774
 20
1.1493061007
 10
9.3315071686
 20
1.0103354321
 10
9.3315071686
 20
1.0103354321
 10
9.310485656
 20
1.0085763097
 10
9.310485656
 20
1.0085763097
 10
9.3050323766
 20
1.025727753
 10
9.2992272728
 20
1.0416478106
 10
9.2931583005
 20
1.0563364825
 10
9.2868254599
 20
1.0697937688
 10
9.280228751
 20
1.0821076255
 10
9.2732802175
 20
1.0931021404
 10
9.2660678158
 20
1.1029532258
 10
9.2585035895
 20
1.1115729255
 10
9.2506754949
 20
1.1191371518
 10
9.2424076197
 20
1.1256459046
 10
9.23378792
 20
1.131099184
 10
9.2248163958
 20
1.1356729022
 10
9.2154930471
 20
1.139191147
 10
9.2057299179
 20
1.1416539183
 10
9.1956149642
 20
1.1431491723
 10
9.185148186
 20
1.1436769091
 10
9.185148186
 20
1.1436769091
 10
9.1701956457
 20
1.142885304
 10
9.1562985788
 20
1.1404225326
 10
9.1434569854
 20
1.1363765512
 10
9.1316708654
 20
1.1306594034
 10
9.1204124821
 20
1.1229192649
 10
9.109242055
 20
1.1126283989
 10
9.0979836717
 20
1.0996988494
 10
9.0868132445
 20
1.0843065285
 10
9.0868132445
 20
1.0843065285
 10
9.076874203
 20
1.0679466903
 10
9.0682545033
 20
1.0508832031
 10
9.0609541454
 20
1.0332040232
 10
9.0550610854
 20
1.0148211942
 10
9.0503994111
 20
0.9957347163
 10
9.0470570786
 20
0.9759445895
 10
9.045122044
 20
0.9554508137
 10
9.044418395
 20
0.934341345
 10
9.044418395
 20
0.934341345
 10
9.0450340878
 20
0.9139355253
 10
9.0470570786
 20
0.8942333546
 10
9.050311455
 20
0.8752348328
 10
9.0548851732
 20
0.8568520039
 10
9.0606902771
 20
0.8395246484
 10
9.0673749422
 20
0.8235166346
 10
9.0751150807
 20
0.8089159188
 10
9.0838227365
 20
0.7956345448
 10
9.0838227365
 20
0.7956345448
 10
9.0934979096
 20
0.7834966003
 10
9.1035249072
 20
0.7730298221
 10
9.1139037293
 20
0.7641462541
 10
9.124722332
 20
0.7569338523
 10
9.1358927591
 20
0.7513046607
 10
9.1474150108
 20
0.7472586792
 10
9.1592890869
 20
0.7447959078
 10
9.1716029436
 20
0.7440043027
 10
9.1716029436
 20
0.7440043027
 10
9.1821576779
 20
0.7445320395
 10
9.1922726316
 20
0.7462032057
 10
9.202123717
 20
0.7490178016
 10
9.2115350218
 20
0.7528878708
 10
9.2204185898
 20
0.7578134135
 10
9.2285105528
 20
0.7635305612
 10
9.2356349985
 20
0.7700393141
 10
9.2419678391
 20
0.7774276281
 10
9.2419678391
 20
0.7774276281
 10
9.2490922847
 20
0.7887739675
 10
9.2542816958
 20
0.8012637364
 10
9.2572722038
 20
0.8146330666
 10
9.2583276773
 20
0.8291458263
 10
9.2583276773
 20
0.8291458263
 10
9.2574481161
 20
0.841459683
 10
9.2548094325
 20
0.8520144173
 10
9.2504995826
 20
0.860634117
 10
9.2443426543
 20
0.8674067382
 10
9.240472585
 20
0.8701333779
 10
9.2357229546
 20
0.8725081931
 10
9.2302696752
 20
0.8745311839
 10
9.2239368346
 20
0.8762023501
 10
9.216900345
 20
0.8774337358
 10
9.2089842943
 20
0.8784012531
 10
9.2002766385
 20
0.8789289898
 10
9.1907773776
 20
0.8791049021
 10
9.1907773776
 20
0.8791049021
 10
9.1907773776
 20
0.895992477
 10
9.1907773776
 20
0.895992477
 10
9.3934282766
 20
0.895992477
 10
9.3934282766
 20
0.895992477
 10
9.3934282766
 20
0.8800724194
 10
9.3934282766
 20
0.8800724194
 10
9.3856881381
 20
0.8792808143
 10
9.3788275608
 20
0.8785771653
 10
9.3726706324
 20
0.8777855603
 10
9.3673053091
 20
0.8769939552
 10
9.3627315909
 20
0.876114394
 10
9.3589494778
 20
0.8753227889
 10
9.3559589697
 20
0.8744432277
 10
9.3537600667
 20
0.8735636665
 10
9.3503297781
 20
0.8712768074
 10
9.3471633578
 20
0.868022431
 10
9.3442608059
 20
0.8637125812
 10
9.3417100784
 20
0.858435214
 10
9.3417100784
 20
0.858435214
 10
9.340654605
 20
0.8552687937
 10
9.3396870877
 20
0.8512228122
 10
9.3388954826
 20
0.8462972695
 10
9.3382797897
 20
0.8404921657
 10
9.337752053
 20
0.8338075006
 10
9.3374002285
 20
0.8263312305
 10
9.3372243163
 20
0.817887443
 10
9.3371363602
 20
0.8085640943
 10
9.3371363602
 20
0.8085640943
 10
9.3371363602
 20
0.8025830782
 10
9.3373122724
 20
0.7951068081
 10
9.3376640969
 20
0.7861352839
 10
9.3381038775
 20
0.7756685057
 10
9.3381038775
 20
0.7756685057
 10
9.3388954826
 20
0.7628269123
 10
9.3388954826
 20
0.7628269123
 10
9.3283407483
 20
0.7646739908
 10
9.3202487853
 20
0.7659053765
 10
9.3145316375
 20
0.7666969815
 10
9.3112772611
 20
0.7669608499
 10
9.3112772611
 20
0.7669608499
 10
9.3100458754
 20
0.7666090254
 10
9.3078469724
 20
0.7656415081
 10
9.3048564644
 20
0.7638823857
 10
9.300898439
 20
0.7615075705
 10
9.300898439
 20
0.7615075705
 10
9.2877050211
 20
0.7539433442
 10
9.2731922614
 20
0.747170723
 10
9.2572722038
 20
0.741277663
 10
9.2401207606
 20
0.7362641642
 10
9.2220897561
 20
0.7323061389
 10
9.203618971
 20
0.7294035869
 10
9.1846204492
 20
0.7277324207
 10
9.1651821469
 20
0.7271167278
 10
9.1651821469
 20
0.7271167278
 10
9.1521646412
 20
0.7273805962
 10
9.13949896
 20
0.7282601574
 10
9.1271851033
 20
0.7296674553
 10
9.115135115
 20
0.731690446
 10
9.103348995
 20
0.7342411735
 10
9.0919146995
 20
0.7373196377
 10
9.0808322284
 20
0.7410137947
 10
9.0700136257
 20
0.7453236445
 10
9.0596348037
 20
0.7501612311
 10
9.0497837183
 20
0.7554385983
 10
9.0403724135
 20
0.7612437021
 10
9.0315768016
 20
0.7674885866
 10
9.0231330141
 20
0.7742612078
 10
9.0153049195
 20
0.7815615657
 10
9.0079166055
 20
0.7893017042
 10
9.0010560282
 20
0.7975695794
 10
9.0010560282
 20
0.7975695794
 10
8.9916447234
 20
0.8110268657
 10
8.9834648043
 20
0.8255396254
 10
8.9764283148
 20
0.8412837707
 10
8.9705352548
 20
0.8580833895
 10
8.9659615366
 20
0.8757625695
 10
8.962619204
 20
0.8940574424
 10
8.9606841694
 20
0.9128800519
 10
8.9599805204
 20
0.9323183543
 10
8.9599805204
 20
0.9323183543
 10
8.9602443888
 20
0.9456876844
 10
8.9612119061
 20
0.9588811023
 10
8.9627071601
 20
0.9717226957
 10
8.9647301509
 20
0.9843883769
 10
8.9674567906
 20
0.9968781459
 10
8.970711167
 20
1.0090160903
 10
8.9745812362
 20
1.0209781226
 10
8.9790669983
 20
1.0326762864
 10
8.9840804971
 20
1.0440226258
 10
8.9896217327
 20
1.0548412285
 10
8.9956027488
 20
1.0652200506
 10
9.0021115016
 20
1.075071136
 10
9.009060035
 20
1.0843944846
 10
9.0165363052
 20
1.0931900966
 10
9.024540312
 20
1.1015459279
 10
9.0329840995
 20
1.1093740225
 10
9.0329840995
 20
1.1093740225
 10
9.0478486837
 20
1.1209842303
 10
9.0636807851
 20
1.131099184
 10
9.0806563162
 20
1.1398947959
 10
9.0985993645
 20
1.1471951538
 10
9.1173340179
 20
1.1530882138
 10
9.1366843642
 20
1.1572221514
 10
9.1564744911
 20
1.1597728789
 10
9.1767923546
 20
1.160564484
 10
9.1767923546
 20
1.160564484
 10
9.1891062113
 20
1.1602126595
 10
9.2009802874
 20
1.1593330983
 10
9.212414583
 20
1.1577498882
 10
9.223497054
 20
1.1555509852
 10
9.2453101716
 20
1.1493061007
 10
9.2670353331
 20
1.1404225326
 10
9.2670353331
 20
1.1404225326
 10
9.2841867763
 20
1.1321546574
 10
9.2841867763
 20
1.1321546574
 10
9.2884966262
 20
1.1305714473
 10
9.2912232659
 20
1.1300437106
 10
9.2912232659
 20
1.1300437106
 10
9.2949174229
 20
1.1312750962
 10
9.2983477116
 20
1.1348812971
 10
9.3016900441
 20
1.1408623132
 10
9.3048564644
 20
1.1493061007
 10
9.3048564644
 20
1.1493061007
 10
9.3254381963
 20
1.1493061007
  0
ENDSEC
  0
SECTION
  2
OBJECTS
  0
DICTIONARY
  5
C
330
0
100
AcDbDictionary
281
     1
  3
ACAD_GROUP
350
D
  3
ACAD_LAYOUT
350
1A
  3
ACAD_MLINESTYLE
350
17
  3
ACAD_PLOTSETTINGS
350
19
  3
ACAD_PLOTSTYLENAME
350
E
  3
ACAD_SCALELIST
350
47
  3
DWGPROPS
350
82
  0
DICTIONARY
  5
D
102
{ACAD_REACTORS
330
C
102
}
330
C
100
AcDbDictionary
281
     1
  0
DICTIONARY
  5
1A
102
{ACAD_REACTORS
330
C
102
}
330
C
100
AcDbDictionary
281
     1
  3
Layout1
350
1E
  3
Layout2
350
26
  3
Model
350
22
  0
DICTIONARY
  5
17
102
{ACAD_REACTORS
330
C
102
}
330
C
100
AcDbDictionary
281
     1
  3
Standard
350
18
  0
DICTIONARY
  5
19
102
{ACAD_REACTORS
330
C
102
}
330
C
100
AcDbDictionary
281
     1
  0
ACDBDICTIONARYWDFLT
  5
E
102
{ACAD_REACTORS
330
C
102
}
330
C
100
AcDbDictionary
281
     1
  3
Normal
350
F
100
AcDbDictionaryWithDefault
340
F
  0
DICTIONARY
  5
47
102
{ACAD_REACTORS
330
C
102
}
330
C
100
AcDbDictionary
281
     1
  3
A0
350
48
  3
A1
350
49
  3
A2
350
4A
  3
A3
350
4B
  3
A4
350
4C
  3
A5
350
4D
  3
A6
350
4E
  3
A7
350
4F
  3
A8
350
50
  3
A9
350
51
  3
B0
350
52
  3
B1
350
53
  3
B2
350
54
  3
B3
350
55
  3
B4
350
56
  3
B5
350
57
  3
B6
350
58
  0
XRECORD
  5
82
102
{ACAD_REACTORS
330
C
102
}
330
C
100
AcDbXrecord
280
     1
  1
DWGPROPS COOKIE
  2

  3

  4

  6

  7

  8
ACER
  9

300
=
301
=
302
=
303
=
304
=
305
=
306
=
307
=
308
=
309
=
 40
0.0
 41
2461178.593787211
 42
2461178.593814711
  1

 90
        0
  0
LAYOUT
  5
1E
102
{ACAD_REACTORS
330
1A
102
}
330
1A
100
AcDbPlotSettings
  1

  2
none_device
  4

  6

 40
0.0
 41
0.0
 42
0.0
 43
0.0
 44
0.0
 45
0.0
 46
0.0
 47
0.0
 48
0.0
 49
0.0
140
0.0
141
0.0
142
1.0
143
1.0
 70
   688
 72
     1
 73
     0
 74
     5
  7

 75
    16
147
1.0
148
0.0
149
0.0
100
AcDbLayout
  1
Layout1
 70
     1
 71
     1
 10
0.0
 20
0.0
 11
420.0
 21
297.0
 12
0.0
 22
0.0
 32
0.0
 14
1.0000000000E+20
 24
1.0000000000E+20
 34
1.0000000000E+20
 15
-1.0000000000E+20
 25
-1.0000000000E+20
 35
-1.0000000000E+20
146
0.0
 13
0.0
 23
0.0
 33
0.0
 16
1.0
 26
0.0
 36
0.0
 17
0.0
 27
1.0
 37
0.0
 76
     0
330
1B
  0
LAYOUT
  5
26
102
{ACAD_REACTORS
330
1A
102
}
330
1A
100
AcDbPlotSettings
  1

  2
none_device
  4

  6

 40
0.0
 41
0.0
 42
0.0
 43
0.0
 44
0.0
 45
0.0
 46
0.0
 47
0.0
 48
0.0
 49
0.0
140
0.0
141
0.0
142
1.0
143
1.0
 70
   688
 72
     1
 73
     0
 74
     5
  7

 75
    16
147
1.0
148
0.0
149
0.0
100
AcDbLayout
  1
Layout2
 70
     1
 71
     2
 10
0.0
 20
0.0
 11
0.0
 21
0.0
 12
0.0
 22
0.0
 32
0.0
 14
0.0
 24
0.0
 34
0.0
 15
0.0
 25
0.0
 35
0.0
146
0.0
 13
0.0
 23
0.0
 33
0.0
 16
1.0
 26
0.0
 36
0.0
 17
0.0
 27
1.0
 37
0.0
 76
     0
330
23
  0
LAYOUT
  5
22
102
{ACAD_REACTORS
330
1A
102
}
330
1A
100
AcDbPlotSettings
  1

  2
none_device
  4
ANSI_A_(11.00_x_8.50_Inches)
  6

 40
6.35
 41
19.05
 42
6.35000508
 43
19.05000254
 44
279.4
 45
215.9
 46
-4.95300254
 47
61.23939873
 48
0.0
 49
0.0
140
0.0
141
0.0
142
1.089
143
1.0
 70
  1696
 72
     0
 73
     0
 74
     0
  7

 75
     0
147
0.0179189148
148
-1300.4909072572
149
0.0
100
AcDbLayout
  1
Model
 70
     1
 71
     0
 10
0.0
 20
0.0
 11
420.0
 21
297.0
 12
0.0
 22
0.0
 32
0.0
 14
0.0
 24
0.0
 34
0.0
 15
10.0
 25
2.0
 35
0.0
146
0.0
 13
0.0
 23
0.0
 33
0.0
 16
1.0
 26
0.0
 36
0.0
 17
0.0
 27
1.0
 37
0.0
 76
     0
330
1F
331
29
  0
MLINESTYLE
  5
18
102
{ACAD_REACTORS
330
17
102
}
330
17
100
AcDbMlineStyle
  2
Standard
 70
     0
  3

 62
   256
 51
90.0
 52
90.0
 71
     2
 49
0.5
 62
   256
  6
BYLAYER
 49
-0.5
 62
   256
  6
BYLAYER
  0
ACDBPLACEHOLDER
  5
F
102
{ACAD_REACTORS
330
E
102
}
330
E
  0
SCALE
  5
48
102
{ACAD_REACTORS
330
47
102
}
330
47
100
AcDbScale
 70
     0
300
1:1
140
1.0
141
1.0
290
     1
  0
SCALE
  5
49
102
{ACAD_REACTORS
330
47
102
}
330
47
100
AcDbScale
 70
     0
300
1:2
140
1.0
141
2.0
290
     0
  0
SCALE
  5
4A
102
{ACAD_REACTORS
330
47
102
}
330
47
100
AcDbScale
 70
     0
300
1:4
140
1.0
141
4.0
290
     0
  0
SCALE
  5
4B
102
{ACAD_REACTORS
330
47
102
}
330
47
100
AcDbScale
 70
     0
300
1:5
140
1.0
141
5.0
290
     0
  0
SCALE
  5
4C
102
{ACAD_REACTORS
330
47
102
}
330
47
100
AcDbScale
 70
     0
300
1:8
140
1.0
141
8.0
290
     0
  0
SCALE
  5
4D
102
{ACAD_REACTORS
330
47
102
}
330
47
100
AcDbScale
 70
     0
300
1:10
140
1.0
141
10.0
290
     0
  0
SCALE
  5
4E
102
{ACAD_REACTORS
330
47
102
}
330
47
100
AcDbScale
 70
     0
300
1:16
140
1.0
141
16.0
290
     0
  0
SCALE
  5
4F
102
{ACAD_REACTORS
330
47
102
}
330
47
100
AcDbScale
 70
     0
300
1:20
140
1.0
141
20.0
290
     0
  0
SCALE
  5
50
102
{ACAD_REACTORS
330
47
102
}
330
47
100
AcDbScale
 70
     0
300
1:30
140
1.0
141
30.0
290
     0
  0
SCALE
  5
51
102
{ACAD_REACTORS
330
47
102
}
330
47
100
AcDbScale
 70
     0
300
1:40
140
1.0
141
40.0
290
     0
  0
SCALE
  5
52
102
{ACAD_REACTORS
330
47
102
}
330
47
100
AcDbScale
 70
     0
300
1:50
140
1.0
141
50.0
290
     0
  0
SCALE
  5
53
102
{ACAD_REACTORS
330
47
102
}
330
47
100
AcDbScale
 70
     0
300
1:100
140
1.0
141
100.0
290
     0
  0
SCALE
  5
54
102
{ACAD_REACTORS
330
47
102
}
330
47
100
AcDbScale
 70
     0
300
2:1
140
2.0
141
1.0
290
     0
  0
SCALE
  5
55
102
{ACAD_REACTORS
330
47
102
}
330
47
100
AcDbScale
 70
     0
300
4:1
140
4.0
141
1.0
290
     0
  0
SCALE
  5
56
102
{ACAD_REACTORS
330
47
102
}
330
47
100
AcDbScale
 70
     0
300
8:1
140
8.0
141
1.0
290
     0
  0
SCALE
  5
57
102
{ACAD_REACTORS
330
47
102
}
330
47
100
AcDbScale
 70
     0
300
10:1
140
10.0
141
1.0
290
     0
  0
SCALE
  5
58
102
{ACAD_REACTORS
330
47
102
}
330
47
100
AcDbScale
 70
     0
300
100:1
140
100.0
141
1.0
290
     0
  0
ENDSEC
  0
EOF
